<?xml version="1.0" standalone="no"?>
<!DOCTYPE svg PUBLIC "-//W3C//DTD SVG 1.1//EN" "http://www.w3.org/Graphics/SVG/1.1/DTD/svg11.dtd" >
<svg>
<metadata>
Created by FontForge 20110222 at Mon Nov 21 16:28:00 2011
 By www-data
\2512003 Prescott Design. All rights reserved.
</metadata>
<defs>
<font id="ClementePDaa-Hairline" horiz-adv-x="494" >
  <font-face 
    font-family="ClementePDaa"
    font-weight="400"
    font-stretch="normal"
    units-per-em="1000"
    panose-1="0 0 0 0 0 0 0 0 0 0"
    ascent="800"
    descent="-200"
    x-height="514"
    cap-height="720"
    bbox="-336 -223 1045 931"
    underline-thickness="20"
    underline-position="-34"
    unicode-range="U+0020-2122"
  />
    <missing-glyph />
    <glyph glyph-name="space" unicode=" " horiz-adv-x="278" 
 />
    <glyph glyph-name="eth" unicode="&#xf0;" horiz-adv-x="537" 
d="M480 247q0 47 -14 90.5t-41 76.5t-66 52.5t-90 19.5t-90.5 -19.5t-66.5 -52.5t-41 -76t-14 -91t14 -91.5t41 -76t66.5 -52t90.5 -19.5t90.5 19.5t66 52.5t40.5 76.5t14 90.5zM500 247q0 -52 -15.5 -99t-45 -82.5t-73 -56.5t-98.5 -21q-56 0 -99 21t-72 56.5t-44.5 82.5
t-15.5 99t15.5 99t45 82.5t72.5 56.5t99 21q47 0 92.5 -19t74.5 -57q-14 27 -33.5 56t-42 56.5t-46.5 52.5t-47 45l-122 -68l-15 15l121 67q-44 34 -93 60l16 14q53 -28 96 -64l123 68l15 -16l-120 -67q45 -42 84 -85.5t67.5 -92.5t44.5 -104.5t16 -119.5z" />
    <glyph glyph-name="Scaron" unicode="&#x160;" horiz-adv-x="570" 
d="M547 177q0 -51 -19.5 -87.5t-52 -60t-74.5 -35t-88 -11.5q-61 0 -115.5 14.5t-95 45.5t-64 79.5t-22.5 116.5h20q0 -64 22 -109t59.5 -73t88 -41t107.5 -13q42 0 80.5 10t68.5 31t47.5 54t17.5 79q0 54 -23.5 86t-60 50.5t-81 28.5t-85.5 20q-44 10 -86.5 21.5t-77 31
t-55.5 51.5t-21 85t22 89t57 57.5t78.5 30.5t86.5 9q52 0 97 -11.5t78.5 -37.5t53.5 -68t23 -102h-20q-2 55 -20.5 93t-49 61.5t-72.5 34t-90 10.5q-38 0 -77.5 -8t-72 -26.5t-53.5 -50.5t-21 -80t21.5 -77.5t56 -47.5t78.5 -28.5t90 -21.5q50 -12 94.5 -24t77.5 -32.5
t52.5 -54.5t19.5 -90v1zM294 792h-15l-114 139h20l103 -123l99 123h20z" />
    <glyph glyph-name="scaron" unicode="&#x161;" horiz-adv-x="434" 
d="M411 131q0 -39 -16.5 -66t-43 -44t-60 -25t-66.5 -8q-102 0 -155 45.5t-53 142.5h20q0 -86 49 -127t139 -41q28 0 57.5 6.5t53.5 21t39.5 37.5t15.5 56q0 34 -15.5 55t-40 34.5t-56.5 21.5t-65 16q-32 8 -63.5 15.5t-57 22t-41 38.5t-15.5 65q0 21 9 44t30 42t54 31
t81 12q86 0 136 -39t50 -125h-20q0 39 -12 66t-34 44.5t-52.5 25.5t-67.5 8q-54 0 -85 -14.5t-46 -33.5t-19 -36.5t-4 -24.5q0 -38 19 -60t47 -34.5t61 -19.5t62 -14q30 -8 59.5 -16.5t53 -23.5t38 -38t14.5 -60zM225 592h-15l-114 139h20l103 -123l99 123h20z" />
    <glyph glyph-name="Yacute" unicode="&#xdd;" 
d="M440 545q0 -91 -46 -141.5t-137 -53.5v-350h-20v350q-91 3 -137 53.5t-46 141.5v175h20v-152q0 -48 9 -85t29 -62t53.5 -38t81.5 -13q49 0 82 13t53 38.5t29 62t9 84.5v152h20v-175v0zM229 787h-15l132 144h29z" />
    <glyph glyph-name="yacute" unicode="&#xfd;" horiz-adv-x="498" 
d="M444 -17q0 -106 -56.5 -156t-157.5 -50q-39 0 -74 9t-62 28.5t-43 50.5t-17 74h20q1 -38 15.5 -65t38.5 -44t55 -25t66 -8q94 0 144.5 45t50.5 141v144q-17 -68 -68 -103.5t-119 -35.5q-85 0 -134 50t-49 135v341h20v-338q0 -78 42.5 -123t120.5 -45q46 0 81 17.5
t58.5 47t35.5 68.5t12 82v291h20v-531v0zM204 587h-15l132 144h29z" />
    <glyph glyph-name="Thorn" unicode="&#xde;" 
d="M437 401q0 85 -49 130t-148 45h-166v-349h166q42 0 78 11.5t62.5 34t41.5 54.5t15 74zM457 401q0 -47 -17 -83.5t-47 -61t-72 -37t-91 -12.5h-156v-207h-20v720h20v-124h166q103 0 160 -49t57 -146z" />
    <glyph glyph-name="thorn" unicode="&#xfe;" horiz-adv-x="527" 
d="M470 246q0 45 -11.5 91.5t-37 84t-68 61t-103.5 23.5q-32 0 -63.5 -11.5t-56.5 -31.5t-40.5 -47t-15.5 -58v-183q0 -39 15 -69.5t41 -52.5t60 -33.5t72 -11.5q51 0 90 19.5t65 52.5t39.5 76t13.5 90zM490 246q0 -53 -15 -99.5t-44 -82t-71.5 -56t-97.5 -20.5
q-66 0 -114.5 29t-73.5 82v-305h-20v926h20v-295q26 50 73 75.5t103 25.5q62 0 107 -23t74.5 -61.5t44 -89t14.5 -106.5z" />
    <glyph glyph-name="Zcaron" unicode="&#x17d;" horiz-adv-x="519" 
d="M529 84q0 -35 -20.5 -59.5t-75.5 -24.5h-433v27l504 673h-471v20h491v-27l-504 -673h409q29 0 45 6.5t24 16.5t9.5 22t1.5 24l20 -5v0zM278 792h-15l-114 139h20l103 -123l99 123h20z" />
    <glyph glyph-name="zcaron" unicode="&#x17e;" horiz-adv-x="407" 
d="M407 84q0 -35 -20.5 -59.5t-75.5 -24.5h-306v25l360 469h-333v20h354v-25l-360 -469h281q29 0 45 6.5t24 16.5t9.5 22t1.5 24l20 -5v0zM212 592h-15l-114 139h20l103 -123l99 123h20z" />
    <glyph glyph-name="onehalf" unicode="&#xbd;" horiz-adv-x="609" 
d="M591 53q0 -23 -13 -38t-45 -15h-211q-1 25 9.5 47t28 40.5t39 35t42.5 30.5q21 15 41 31t35.5 33t25 36t9.5 40q0 41 -28 65.5t-71 24.5q-56 0 -80.5 -35t-24.5 -88h-20q1 66 32 104.5t93 38.5q25 0 46.5 -7.5t37.5 -22t25.5 -35t9.5 -45.5q0 -32 -15.5 -57.5t-39.5 -48
t-52.5 -42.5t-54 -39.5t-44.5 -40.5t-24 -45h189q29 0 34.5 11t5.5 27l20 -5v0zM23 0h-23l458 720h23zM104 324v376h-7q-29 0 -34.5 -11t-5.5 -27l-20 5q0 23 12.5 38t44.5 15h30v-396h-20z" />
    <glyph glyph-name="onequarter" unicode="&#xbc;" horiz-adv-x="532" 
d="M404 364l-166 -228h166v228zM495 170q0 -23 -12.5 -38t-44.5 -15h-14v-117h-20v117h-190v18l189 261h21v-260h11q29 0 34.5 11.5t5.5 27.5l20 -5v0zM23 0h-23l458 720h23zM104 324v376h-7q-29 0 -34.5 -11t-5.5 -27l-20 5q0 23 12.5 38t44.5 15h30v-396h-20z" />
    <glyph glyph-name="onesuperior" unicode="&#xb9;" horiz-adv-x="178" 
d="M104 324v376h-7q-29 0 -34.5 -11t-5.5 -27l-20 5q0 23 12.5 38t44.5 15h30v-396h-20z" />
    <glyph glyph-name="threequarters" unicode="&#xbe;" horiz-adv-x="662" 
d="M534 364l-166 -228h166v228zM625 170q0 -23 -12.5 -38t-44.5 -15h-14v-117h-20v117h-190v18l189 261h21v-260h11q30 0 35 11.5t5 27.5l20 -5v0zM153 0h-23l458 720h23zM298 440q0 -27 -11 -48.5t-29 -36.5t-42 -23.5t-49 -8.5q-32 0 -59 9.5t-45.5 28t-28 45.5t-7.5 61
h20q-5 -60 29 -92.5t91 -32.5q22 0 42 7t35.5 20t24.5 31t9 40q0 45 -29 68.5t-74 23.5h-16v19h16q39 0 67.5 20.5t28.5 60.5q0 21 -8.5 36t-23 24.5t-33 14.5t-37.5 5q-53 0 -83 -29t-29 -85h-20q-1 64 34.5 99t97.5 35q23 0 45 -6t39 -18t27.5 -31t10.5 -45
q0 -32 -17 -56.5t-46 -34.5q33 -10 51.5 -38t18.5 -63z" />
    <glyph glyph-name="threesuperior" unicode="&#xb3;" horiz-adv-x="335" 
d="M298 440q0 -27 -11 -48.5t-29 -36.5t-42 -23.5t-49 -8.5q-32 0 -59 9.5t-45.5 28t-28 45.5t-7.5 61h20q-5 -60 29 -92.5t91 -32.5q22 0 42 7t35.5 20t24.5 31t9 40q0 45 -29 68.5t-74 23.5h-16v19h16q39 0 67.5 20.5t28.5 60.5q0 21 -8.5 36t-23 24.5t-33 14.5t-37.5 5
q-53 0 -83 -29t-29 -85h-20q-1 64 34.5 99t97.5 35q23 0 45 -6t39 -18t27.5 -31t10.5 -45q0 -32 -17 -56.5t-46 -34.5q33 -10 51.5 -38t18.5 -63z" />
    <glyph glyph-name="twosuperior" unicode="&#xb2;" horiz-adv-x="318" 
d="M300 382q0 -23 -13 -38t-45 -15h-211q-1 26 9.5 48t28 40.5t39 35t42.5 30.5q21 15 41 30.5t35.5 33t25 36t9.5 39.5q0 41 -28 65.5t-71 24.5q-28 0 -48 -9t-32.5 -25.5t-18.5 -39t-6 -48.5h-20q1 65 32 103.5t93 38.5q50 0 84.5 -29t34.5 -81q0 -32 -15.5 -57.5
t-39.5 -48t-52.5 -42.5t-54 -39.5t-44.5 -40.5t-24 -45h189q29 0 34.5 11t5.5 27l20 -5v0z" />
    <glyph glyph-name="brokenbar" unicode="&#xa6;" horiz-adv-x="128" 
d="M54 0v274h20v-274h-20zM54 446v274h20v-274h-20z" />
    <glyph glyph-name="multiply" unicode="&#xd7;" horiz-adv-x="408" 
d="M394 156l-191 192l-189 -192l-14 14l190 190l-190 190l14 14l189 -192l191 192l14 -13l-191 -190l191 -190z" />
    <glyph glyph-name="exclam" unicode="!" horiz-adv-x="128" 
d="M91 15q0 -11 -8 -19t-19 -8t-19 8t-8 19t8 19t19 8t19 -8t8 -19zM74 87h-20l-5 633h30z" />
    <glyph glyph-name="quotedbl" unicode="&#x22;" horiz-adv-x="202" 
d="M54 495v225h20v-225h-20zM128 495v225h20v-225h-20z" />
    <glyph glyph-name="numbersign" unicode="#" horiz-adv-x="582" 
d="M218 445l-24 -170h170l24 170h-170zM579 445h-170l-24 -170h170l-3 -20h-170l-36 -255h-21l36 255h-170l-36 -255h-21l36 255h-170l3 20h170l24 170h-170l3 20h170l35 255h21l-35 -255h170l35 255h21l-35 -255h170z" />
    <glyph glyph-name="dollar" unicode="$" horiz-adv-x="434" 
d="M411 234q0 -38 -16 -65t-42 -44t-58.5 -25.5t-65.5 -8.5v-91h-20v91q-94 4 -143 49t-49 139h20q0 -86 49 -127t139 -41q28 0 57.5 6.5t53.5 21t39.5 37.5t15.5 56q0 34 -15.5 55t-40 34.5t-56.5 21.5t-65 16q-32 8 -63.5 15.5t-57 22t-41 38.5t-15.5 65q0 21 9 44
t29.5 41.5t53.5 31t80 12.5v91h20v-91q78 -5 123 -44t45 -120h-20q0 39 -12 66t-34 44.5t-52.5 25.5t-67.5 8q-54 0 -85 -14.5t-46 -33.5t-19 -36.5t-4 -24.5q0 -38 19 -60t47 -34.5t61 -19.5t62 -14q30 -8 59.5 -16.5t53 -23.5t38 -38t14.5 -60z" />
    <glyph glyph-name="percent" unicode="%" horiz-adv-x="652" 
d="M595 157q0 69 -33 111t-102 42t-100.5 -43.5t-31.5 -109.5q0 -30 8 -57.5t24.5 -47.5t41.5 -32t58 -12t58.5 12t42.5 32.5t25.5 47.5t8.5 57zM615 158q0 -35 -10 -65.5t-30 -54t-49 -37t-66 -13.5q-39 0 -68 14t-47.5 37.5t-27.5 54t-9 63.5q0 38 10 69.5t29.5 54.5
t48 36t64.5 13q76 0 115.5 -48.5t39.5 -123.5zM324 547q0 69 -33 111t-102 42t-100.5 -43.5t-31.5 -109.5q0 -30 8 -57.5t24.5 -47.5t41.5 -32t58 -12t58.5 12t42.5 32.5t25.5 47.5t8.5 57zM107 0h-23l445 700h-259q37 -21 55.5 -60.5t18.5 -91.5q0 -35 -10 -65.5t-30 -54
t-49 -37t-66 -13.5q-39 0 -68 14t-47.5 37.5t-27.5 54t-9 63.5q0 38 10 69.5t29.5 54.5t48 36t64.5 13h363v-20z" />
    <glyph glyph-name="ampersand" unicode="&#x26;" horiz-adv-x="639" 
d="M639 324q0 -35 -20.5 -59.5t-75.5 -24.5h-42q4 -59 -12.5 -105.5t-49.5 -79t-80.5 -50t-104.5 -17.5q-45 0 -87 15t-73.5 42.5t-50.5 66t-19 86.5q0 36 11 68.5t31.5 58t50 41.5t66.5 20q-34 3 -61 17.5t-46 37t-29 52t-10 62.5q0 45 18 78.5t47.5 55.5t68 32.5
t79.5 10.5q109 0 171 -61.5t61 -171.5h-20q1 50 -13.5 89.5t-42 67t-67.5 42t-89 14.5q-36 0 -70.5 -9.5t-62 -28.5t-44 -49t-16.5 -70q0 -39 15 -69t40 -50t58 -30t69 -10h22v-20h-22q-42 0 -77.5 -11.5t-61.5 -34t-41 -55.5t-15 -77t17.5 -79t46.5 -59.5t67 -38t79 -13.5
q53 0 97 16t74 46t45 73t11 97h-60q-29 0 -45 -6.5t-24 -16.5t-9.5 -22t-1.5 -24l-20 5q0 35 20.5 59.5t75.5 24.5h122q29 0 45 6.5t24 16.5t9.5 22t1.5 24l20 -5v0z" />
    <glyph glyph-name="quotesingle" unicode="'" horiz-adv-x="128" 
d="M54 495v225h20v-225h-20z" />
    <glyph glyph-name="parenleft" unicode="(" horiz-adv-x="173" 
d="M154 -206q-29 58 -51 113.5t-36.5 112.5t-22 117t-7.5 125q0 120 30 236t86 222h20q-56 -106 -86 -222t-30 -236q0 -122 29.5 -241t87.5 -227h-20z" />
    <glyph glyph-name="parenright" unicode=")" horiz-adv-x="173" 
d="M137 252q0 -120 -30 -236t-86 -222h-20q56 106 86 222t30 236q0 122 -29.5 241t-87.5 227h20q29 -58 51 -114t36.5 -113t22 -116.5t7.5 -124.5z" />
    <glyph glyph-name="asterisk" unicode="*" horiz-adv-x="302" 
d="M167 561l86 -110l-24 -18l-78 116l-78 -116l-25 18l87 110l-135 38l9 29l132 -48l-5 140h30l-5 -140l131 48l10 -29z" />
    <glyph glyph-name="plus" unicode="+" horiz-adv-x="594" 
d="M307 350v-243h-20v243h-242v20h242v243h20v-243h242v-20h-242z" />
    <glyph glyph-name="comma" unicode="," horiz-adv-x="130" 
d="M17 -105l-17 10l112 195l18 -10z" />
    <glyph glyph-name="hyphen" unicode="-" horiz-adv-x="265" 
d="M45 258v20h175v-20h-175z" />
    <glyph glyph-name="period" unicode="." horiz-adv-x="128" 
d="M91 15q0 -11 -8 -19t-19 -8t-19 8t-8 19t8 19t19 8t19 -8t8 -19z" />
    <glyph glyph-name="slash" unicode="/" horiz-adv-x="335" 
d="M20 0h-20l314 720h21z" />
    <glyph glyph-name="zero" unicode="0" horiz-adv-x="556" 
d="M515 360q0 57 -11 119t-38 113.5t-72.5 85.5t-115.5 34t-115.5 -34t-72.5 -85.5t-38 -113.5t-11 -119t11 -119t38 -113.5t72.5 -85.5t115.5 -34t115.5 34t72.5 85.5t38 113.5t11 119zM535 360q0 -61 -12 -127t-41.5 -120.5t-79 -89.5t-124.5 -35t-124.5 35t-79 89.5
t-41.5 120.5t-12 127t12 127t41.5 120.5t79 89.5t124.5 35t124.5 -35t79 -89.5t41.5 -120.5t12 -127z" />
    <glyph glyph-name="one" unicode="1" horiz-adv-x="556" 
d="M277 0v700h-21q-29 0 -45 -6.5t-24 -16.5t-9.5 -22t-1.5 -24l-20 5q0 35 20.5 59.5t75.5 24.5h45v-720h-20z" />
    <glyph glyph-name="two" unicode="2" horiz-adv-x="556" 
d="M518 84q0 -35 -20.5 -59.5t-75.5 -24.5h-377q-1 43 18 80.5t49.5 70.5t69 62.5t77.5 56.5t76 57t66 63t46.5 69.5t17.5 76.5t-14.5 72.5t-39.5 55.5t-60 35.5t-75 12.5q-53 0 -91 -18t-62 -49t-35 -72.5t-11 -88.5h-20q0 56 14 101.5t41.5 78t68.5 50.5t95 18
q43 0 81.5 -13.5t66.5 -39t44.5 -61.5t16.5 -82q0 -42 -17.5 -80.5t-46 -73t-65 -65t-75.5 -57.5t-76.5 -55.5t-67 -58.5t-49 -61.5t-23.5 -64.5h353q29 0 45 6.5t24 16.5t9.5 22t1.5 24l20 -5v0z" />
    <glyph glyph-name="three" unicode="3" horiz-adv-x="556" 
d="M517 198q0 -48 -19 -86.5t-50.5 -66t-73.5 -42.5t-87 -15q-57 0 -104.5 17.5t-80.5 50t-49.5 79t-12.5 105.5h20q-4 -54 11 -97t45 -73t74 -46t97 -16q41 0 79 13.5t67 38t46.5 59.5t17.5 79t-15 77t-41 55.5t-61.5 34t-77.5 11.5h-22v20h22q36 0 69 10t58 30t40 50
t15 69q0 40 -16.5 70t-44 49t-62 28.5t-70.5 9.5q-50 0 -89.5 -14.5t-67 -42t-42 -67t-13.5 -89.5h-20q-1 110 61 171.5t171 61.5q41 0 79.5 -10.5t68 -32.5t47.5 -55.5t18 -78.5q0 -33 -10 -62.5t-29 -52t-46 -37t-61 -17.5q37 -4 66.5 -20t50 -41.5t31.5 -58t11 -68.5z
" />
    <glyph glyph-name="four" unicode="4" horiz-adv-x="556" 
d="M379 695l-325 -458h325v458zM528 301q0 -35 -20.5 -59.5t-75.5 -24.5h-33v-217h-20v217h-345v24l340 479h25v-483h29q29 0 45 6.5t24 16.5t9.5 22t1.5 24l20 -5v0z" />
    <glyph glyph-name="five" unicode="5" horiz-adv-x="556" 
d="M520 631q1 41 -20 55t-60 14h-295l-71 -334q30 49 81.5 72t107.5 23q52 0 95 -17.5t74 -48.5t48.5 -74t17.5 -95q0 -53 -17 -96.5t-47.5 -75t-74 -49t-96.5 -17.5q-54 0 -98 15.5t-75 44.5t-47.5 72t-15.5 98h20q-1 -51 14 -90t43.5 -66t68.5 -40.5t90 -13.5
q49 0 89 15.5t68 44t43 69t15 89.5q0 48 -15.5 87.5t-44 68t-68 44t-87.5 15.5q-58 0 -109.5 -25.5t-80.5 -78.5h-25l81 383h315q43 0 70 -19t26 -65z" />
    <glyph glyph-name="six" unicode="6" horiz-adv-x="556" 
d="M517 236q0 47 -18 88.5t-49 72.5t-72.5 49t-88.5 18t-88.5 -18t-72.5 -49t-49 -72.5t-18 -88.5t18 -88.5t49 -72.5t72.5 -49t88.5 -18t88.5 18t72.5 49t49 72.5t18 88.5zM537 236q0 -52 -19.5 -97t-53 -78.5t-78.5 -53t-97 -19.5q-62 0 -118.5 30t-90.5 83
q-17 26 -26 55.5t-14 60.5t-6 62t-1 61q0 43 5 89t17.5 90t32.5 82.5t50 67.5t71 46t94 17q35 0 68.5 -9t62.5 -28l-12 -17q-26 18 -57 26t-63 8q-52 0 -90.5 -17.5t-66.5 -47.5t-46 -69.5t-28.5 -83t-14.5 -88.5t-4 -86v-19q8 41 31 74.5t55 57.5t71 37.5t80 13.5
q51 0 96 -19.5t79 -53.5t53.5 -79t19.5 -96z" />
    <glyph glyph-name="seven" unicode="7" horiz-adv-x="556" 
d="M272 0h-23l255 700h-373q-29 0 -45 -6.5t-24 -16.5t-9.5 -22t-1.5 -24l-20 5q0 35 20.5 59.5t75.5 24.5h400v-20z" />
    <glyph glyph-name="eight" unicode="8" horiz-adv-x="556" 
d="M475 205q0 41 -15.5 77t-42 62.5t-62.5 42t-77 15.5t-77 -15.5t-62.5 -42t-42 -62.5t-15.5 -77t15.5 -77t42 -62.5t62.5 -42t77 -15.5t77 15.5t62.5 42t42 62.5t15.5 77zM423 567q0 30 -11.5 56.5t-31 46t-46 31t-56.5 11.5t-56.5 -11.5t-46 -31t-31 -46t-11.5 -56.5
t11.5 -56.5t31 -46t46 -31t56.5 -11.5t56.5 11.5t46 31t31 46t11.5 56.5zM495 205q0 -45 -17 -84.5t-46.5 -69t-69 -46.5t-84.5 -17t-84.5 17t-69 46.5t-46.5 69t-17 84.5q0 37 11.5 70.5t32.5 61t49.5 47t62.5 29.5q-46 19 -75 60t-29 94q0 34 13 64t35.5 52.5t52.5 35.5
t64 13t64 -13t52.5 -35.5t35.5 -52.5t13 -64q0 -53 -29 -94t-75 -60q34 -10 62.5 -29.5t49.5 -47t32.5 -61t11.5 -70.5z" />
    <glyph glyph-name="nine" unicode="9" horiz-adv-x="556" 
d="M508 484q0 47 -18 88.5t-48.5 72.5t-72 49t-88.5 18q-48 0 -89.5 -18t-72 -49t-48.5 -72.5t-18 -88.5t18 -88.5t48.5 -72.5t72 -49t89.5 -18q47 0 88.5 18t72 49t48.5 72.5t18 88.5zM537 380q0 -65 -12.5 -134.5t-43 -126.5t-83 -94t-131.5 -37q-35 0 -69 9t-63 28l12 17
q27 -18 58 -26t63 -8q52 0 90.5 17.5t66.5 47.5t46 69.5t28.5 83t14.5 88.5t4 86v19q-9 -41 -32 -74.5t-55 -57.5t-71 -37.5t-79 -13.5q-51 0 -96.5 19.5t-79 53.5t-53 79t-19.5 96q0 52 19.5 97t53 78.5t78.5 53t97 19.5q62 0 118.5 -30t89.5 -83q16 -26 26 -55.5
t14.5 -60.5t6 -62t1.5 -61z" />
    <glyph glyph-name="colon" unicode=":" horiz-adv-x="128" 
d="M91 15q0 -11 -8 -19t-19 -8t-19 8t-8 19t8 19t19 8t19 -8t8 -19zM91 499q0 -11 -8 -19t-19 -8t-19 8t-8 19t8 19t19 8t19 -8t8 -19z" />
    <glyph glyph-name="semicolon" unicode=";" horiz-adv-x="128" 
d="M17 -105l-17 10l112 195l18 -10zM91 499q0 -11 -8 -19t-19 -8t-19 8t-8 19t8 19t19 8t19 -8t8 -19z" />
    <glyph glyph-name="less" unicode="&#x3c;" horiz-adv-x="598" 
d="M45 348v24l508 249v-21l-490 -240l490 -240v-21z" />
    <glyph glyph-name="equal" unicode="=" horiz-adv-x="594" 
d="M45 253v20h504v-20h-504zM45 447v20h504v-20h-504z" />
    <glyph glyph-name="greater" unicode="&#x3e;" horiz-adv-x="598" 
d="M45 99v21l490 240l-490 240v21l508 -249v-24z" />
    <glyph glyph-name="question" unicode="?" horiz-adv-x="488" 
d="M271 15q0 -11 -8 -19t-19 -8t-19 8t-8 19t8 19t19 8t19 -8t8 -19zM451 565q0 -38 -11 -66t-26 -49.5t-32 -37t-29 -26.5q-27 -26 -46 -47.5t-31 -44t-17 -49.5t-5 -63v-107h-20v107q0 34 5 61t16 51.5t30 48.5t47 51q6 6 22 19t33.5 34t30.5 50.5t13 67.5
q0 35 -13.5 62.5t-37 46t-56 28t-70.5 9.5q-50 0 -87.5 -16t-62.5 -44.5t-37 -69t-10 -88.5h-20q-2 52 12 96t42 75.5t69 49t94 17.5q41 0 77 -11t62.5 -32t42 -52t15.5 -71z" />
    <glyph glyph-name="at" unicode="@" horiz-adv-x="778" 
d="M553 469q-14 48 -51 70.5t-85 22.5t-88.5 -27t-69.5 -68.5t-45 -90t-16 -91.5q0 -27 9 -50.5t25 -41t39 -27.5t50 -10q61 0 99.5 35t59.5 89q18 48 36.5 94.5t36.5 94.5zM741 423q0 -30 -5.5 -59.5t-16.5 -57.5q-14 -35 -39 -70t-58 -61q-23 -17 -49 -28t-53 -11
q-24 0 -43.5 14t-19.5 40q0 3 0.5 6t1.5 7q-26 -36 -62.5 -51.5t-79.5 -15.5q-31 0 -56.5 12t-44 32.5t-28.5 47.5t-10 57q0 49 17.5 101.5t50 96t77 71.5t98.5 28q22 0 44 -6t41.5 -17t34 -28t22.5 -39l26 70h21l-114 -295q-6 -17 -11.5 -35t-5.5 -35q0 -41 43 -41
q21 0 41 8t37 20q28 19 50.5 46t38.5 58.5t24 66t8 68.5q0 67 -24.5 120.5t-67 91t-99.5 57.5t-121 20q-74 0 -138 -27t-111.5 -74t-75 -110.5t-27.5 -137.5q0 -79 25 -144.5t71.5 -112t111 -72.5t144.5 -26q90 0 168.5 45t129.5 118h23q-25 -41 -60.5 -74.5t-77.5 -57.5
t-88.5 -37.5t-94.5 -13.5q-84 0 -152.5 27.5t-117 77t-75.5 118.5t-27 152q0 78 29 145.5t79 117t118 78t146 28.5q68 0 128.5 -21.5t105.5 -61.5t71.5 -97.5t26.5 -128.5z" />
    <glyph glyph-name="A" unicode="A" 
d="M420 519q0 48 -9 85t-29 62t-53.5 38t-81.5 13q-49 0 -82 -13t-53.5 -38.5t-29 -62t-8.5 -84.5v-149h346v149zM420 0v350h-346v-350h-20v542q0 94 48.5 144.5t144.5 50.5t144.5 -50.5t48.5 -144.5v-542h-20z" />
    <glyph glyph-name="B" unicode="B" 
d="M437 194q0 45 -16.5 77.5t-44.5 53t-65 30.5t-77 10h-160v-345h157q41 0 78.5 10t66 31.5t45 54.5t16.5 78zM415 540q0 41 -14 71t-38.5 50t-57.5 29.5t-71 9.5h-160v-315h160q35 0 68 10t58 29.5t40 48.5t15 68v-1zM457 196q0 -52 -19.5 -89t-51.5 -61t-75 -35t-89 -11
h-168v720h180q42 0 78.5 -11t64 -33.5t43 -56t15.5 -78.5q0 -33 -11.5 -62t-31.5 -51.5t-47.5 -36.5t-60.5 -16q38 -1 69.5 -15t54.5 -38t36 -56t13 -70z" />
    <glyph glyph-name="C" unicode="C" horiz-adv-x="703" 
d="M666 280q-9 -64 -32 -118.5t-61.5 -94t-91.5 -62t-121 -22.5q-78 0 -138 31t-101.5 82.5t-62.5 118.5t-21 139q0 76 21.5 145.5t64 122.5t105.5 84t145 31q48 0 98.5 -16.5t93 -46.5t71 -73t30.5 -95h-20q-5 49 -31 88.5t-64.5 66.5t-85 41.5t-92.5 14.5
q-77 0 -135.5 -30t-99 -80.5t-61 -116t-20.5 -136.5q0 -68 20 -131t58.5 -112t95 -78.5t129.5 -29.5q64 0 113.5 21t85 57.5t57.5 87.5t30 111h20v0z" />
    <glyph glyph-name="D" unicode="D" 
d="M437 360q0 72 -16 134.5t-50.5 108t-89.5 71.5t-133 26h-74v-680h53q76 0 134 26t97 71.5t59 108t20 134.5zM457 360q0 -79 -22 -145t-64.5 -114t-105 -74.5t-143.5 -26.5h-68v720h99q81 0 138.5 -28.5t94 -77t54 -114t17.5 -140.5z" />
    <glyph glyph-name="E" unicode="E" 
d="M54 0v720h391v-20h-371v-330h344v-20h-344v-330h375v-20h-395z" />
    <glyph glyph-name="F" unicode="F" 
d="M74 700v-330h344v-20h-344v-350h-20v720h391v-20h-371z" />
    <glyph glyph-name="G" unicode="G" horiz-adv-x="720" 
d="M730 -6q-34 0 -51 13t-24.5 38t-8 62.5t-0.5 85.5q-16 -47 -41.5 -85.5t-61.5 -66.5t-81.5 -43t-101.5 -15q-78 0 -138 31t-101.5 82.5t-62.5 118.5t-21 139q0 76 21.5 145.5t64 122.5t105.5 84t145 31q48 0 98.5 -16.5t93 -46.5t71 -73t30.5 -95h-20q-5 49 -31 88.5
t-64.5 66.5t-85 41.5t-92.5 14.5q-77 0 -135.5 -30t-99 -80.5t-61 -116t-20.5 -136.5q0 -68 20 -131t58.5 -112t95 -78.5t129.5 -29.5q64 0 113.5 21t85 57.5t57.5 87.5t30 111h-273v20h293v-206q0 -29 6.5 -45t16.5 -24t22 -9.5t24 -1.5z" />
    <glyph glyph-name="H" unicode="H" 
d="M420 0v350h-346v-350h-20v720h20v-350h346v350h20v-720h-20z" />
    <glyph glyph-name="I" unicode="I" horiz-adv-x="128" 
d="M54 0v720h20v-720h-20z" />
    <glyph glyph-name="J" unicode="J" 
d="M440 186q0 -45 -10.5 -82t-33.5 -64t-60.5 -42t-91.5 -15q-51 0 -87 15t-59 41t-33.5 61.5t-10.5 77.5v102h20v-102q0 -88 43.5 -131.5t126.5 -43.5q43 0 75.5 10t55 33t34 61t11.5 94v499h-266q-29 0 -45 -6.5t-24 -16.5t-9.5 -22t-1.5 -24l-20 5q0 35 20.5 59.5
t75.5 24.5h290v-534v0z" />
    <glyph glyph-name="K" unicode="K" horiz-adv-x="358" 
d="M332 0l-258 343v-343h-20v720h20v-343l258 343h26l-271 -360l271 -360h-26z" />
    <glyph glyph-name="L" unicode="L" 
d="M494 84q0 -35 -20.5 -59.5t-75.5 -24.5h-344v720h20v-700h320q29 0 45 6.5t24 16.5t9.5 22t1.5 24l20 -5v0z" />
    <glyph glyph-name="M" unicode="M" horiz-adv-x="860" 
d="M786 0v519q0 48 -9 85t-29 62t-53.5 38t-81.5 13q-49 0 -82 -13t-53.5 -38.5t-29 -62t-8.5 -84.5v-519h-20v519q0 48 -9 85t-29 62t-53.5 38t-81.5 13q-49 0 -82 -13t-53.5 -38.5t-29 -62t-8.5 -84.5v-519h-20v542q0 94 48.5 144.5t144.5 50.5q74 0 120 -30.5t63 -88.5
q17 58 63 88.5t120 30.5q96 0 144.5 -50.5t48.5 -144.5v-542h-20z" />
    <glyph glyph-name="N" unicode="N" 
d="M420 0v519q0 48 -9 85t-29 62t-53.5 38t-81.5 13q-49 0 -82 -13t-53.5 -38.5t-29 -62t-8.5 -84.5v-519h-20v542q0 94 48.5 144.5t144.5 50.5t144.5 -50.5t48.5 -144.5v-542h-20z" />
    <glyph glyph-name="O" unicode="O" horiz-adv-x="732" 
d="M675 360q0 71 -19.5 135.5t-58 114t-96.5 78.5t-135 29t-135 -29t-96.5 -78.5t-58 -114t-19.5 -135.5t19.5 -135.5t58 -114t96.5 -78.5t135 -29t135 29t96.5 78.5t58 114t19.5 135.5zM695 360q0 -75 -21 -143.5t-62.5 -120t-103 -82.5t-142.5 -31t-142.5 31t-103 82.5
t-62.5 120t-21 143.5t21 143.5t62.5 120t103 82.5t142.5 31t142.5 -31t103 -82.5t62.5 -120t21 -143.5z" />
    <glyph glyph-name="P" unicode="P" 
d="M437 525q0 85 -49 130t-148 45h-166v-349h166q42 0 78 11.5t62.5 34t41.5 54.5t15 74zM457 525q0 -47 -17 -83.5t-47 -61t-72 -37t-91 -12.5h-156v-331h-20v720h186q103 0 160 -49t57 -146z" />
    <glyph glyph-name="Q" unicode="Q" horiz-adv-x="732" 
d="M675 360q0 71 -19.5 135.5t-58 114t-96.5 78.5t-135 29t-135 -29t-96.5 -78.5t-58 -114t-19.5 -135.5t19.5 -135.5t58 -114t96.5 -78.5t135 -29q69 0 129 26.5t103 81.5l-107 100q-11 11 -26.5 21t-32.5 10q-14 0 -26 -8t-20 -19l-12 17q11 13 26.5 21.5t32.5 8.5
q20 0 37.5 -10t31.5 -24l108 -100q35 51 50 111t15 121zM865 -21q-11 -13 -26.5 -21.5t-32.5 -8.5q-20 0 -37.5 10t-31.5 24l-124 115q-47 -59 -110 -87t-137 -28q-81 0 -142.5 31t-103 82.5t-62.5 120t-21 143.5t21 143.5t62.5 120t103 82.5t142.5 31t142.5 -31t103 -82.5
t62.5 -120t21 -143.5q0 -65 -16.5 -128.5t-53.5 -117.5l123 -114q11 -11 26.5 -21t32.5 -10q14 0 26 8t21 19l11 -17v0z" />
    <glyph glyph-name="R" unicode="R" 
d="M437 539q-1 76 -46 118.5t-147 42.5h-170v-339h160q39 0 76 10t65.5 32t45 55.5t16.5 80.5zM457 532q0 -73 -42 -119t-111 -61q46 -6 74 -22.5t43 -42t19.5 -59.5t4.5 -75v-153h-20v156q0 52 -9.5 87.5t-31.5 57.5t-58 31t-90 9h-162v-341h-20v720h185q49 0 89 -9.5
t68.5 -31.5t44.5 -58t16 -89z" />
    <glyph glyph-name="S" unicode="S" horiz-adv-x="570" 
d="M547 177q0 -51 -19.5 -87.5t-52 -60t-74.5 -35t-88 -11.5q-61 0 -115.5 14.5t-95 45.5t-64 79.5t-22.5 116.5h20q0 -64 22 -109t59.5 -73t88 -41t107.5 -13q42 0 80.5 10t68.5 31t47.5 54t17.5 79q0 54 -23.5 86t-60 50.5t-81 28.5t-85.5 20q-44 10 -86.5 21.5t-77 31
t-55.5 51.5t-21 85t22 89t57 57.5t78.5 30.5t86.5 9q52 0 97 -11.5t78.5 -37.5t53.5 -68t23 -102h-20q-2 55 -20.5 93t-49 61.5t-72.5 34t-90 10.5q-38 0 -77.5 -8t-72 -26.5t-53.5 -50.5t-21 -80t21.5 -77.5t56 -47.5t78.5 -28.5t90 -21.5q50 -12 94.5 -24t77.5 -32.5
t52.5 -54t19.5 -89.5z" />
    <glyph glyph-name="T" unicode="T" 
d="M257 700v-700h-20v700h-137q-29 0 -45 -6.5t-24 -16.5t-9.5 -22t-1.5 -24l-20 5q0 35 20.5 59.5t75.5 24.5h398v-20h-237z" />
    <glyph glyph-name="U" unicode="U" 
d="M440 178q0 -94 -48.5 -144.5t-144.5 -50.5t-144.5 50.5t-48.5 144.5v542h20v-519q0 -48 9 -85t29 -62t53.5 -38t81.5 -13q49 0 82 13t53 38.5t29 62t9 84.5v519h20v-542v0z" />
    <glyph glyph-name="V" unicode="V" horiz-adv-x="547" 
d="M285 0h-23l-262 720h23l251 -688l250 688h23z" />
    <glyph glyph-name="W" unicode="W" horiz-adv-x="860" 
d="M806 178q0 -94 -48.5 -144.5t-144.5 -50.5q-74 0 -120 30.5t-63 88.5q-17 -58 -63 -88.5t-120 -30.5q-96 0 -144.5 50.5t-48.5 144.5v542h20v-519q0 -48 9 -85t29 -62t53.5 -38t81.5 -13q49 0 82 13t53 38.5t29 62t9 84.5v519h20v-519q0 -48 9 -85t29 -62t53.5 -38
t81.5 -13q49 0 82 13t53 38.5t29 62t9 84.5v519h20v-542v0z" />
    <glyph glyph-name="X" unicode="X" horiz-adv-x="569" 
d="M543 0l-259 343l-258 -343h-26l271 360l-271 360h26l258 -343l259 343h26l-272 -360l272 -360h-26z" />
    <glyph glyph-name="Y" unicode="Y" 
d="M440 545q0 -91 -46 -141.5t-137 -53.5v-350h-20v350q-91 3 -137 53.5t-46 141.5v175h20v-152q0 -48 9 -85t29 -62t53.5 -38t81.5 -13q49 0 82 13t53 38.5t29 62t9 84.5v152h20v-175v0z" />
    <glyph glyph-name="Z" unicode="Z" horiz-adv-x="519" 
d="M529 84q0 -35 -20.5 -59.5t-75.5 -24.5h-433v27l504 673h-471v20h491v-27l-504 -673h409q29 0 45 6.5t24 16.5t9.5 22t1.5 24l20 -5v0z" />
    <glyph glyph-name="bracketleft" unicode="[" horiz-adv-x="212" 
d="M54 -206v926h113v-20h-93v-886h93v-20h-113z" />
    <glyph glyph-name="backslash" unicode="\" horiz-adv-x="335" 
d="M315 0l-315 720h20l315 -720h-20z" />
    <glyph glyph-name="bracketright" unicode="]" horiz-adv-x="212" 
d="M45 -206v20h93v886h-93v20h113v-926h-113z" />
    <glyph glyph-name="asciicircum" unicode="^" horiz-adv-x="482" 
d="M462 267l-221 433l-221 -433h-20l231 453h20l231 -453h-20z" />
    <glyph glyph-name="underscore" unicode="_" horiz-adv-x="500" 
d="M0 -125v50h500v-50h-500z" />
    <glyph glyph-name="grave" unicode="`" horiz-adv-x="0" 
d="M191 709h29l126 -144h-15z" />
    <glyph glyph-name="a" unicode="a" horiz-adv-x="527" 
d="M453 358q0 31 -15.5 58t-40.5 47t-56.5 31.5t-63.5 11.5q-62 0 -104 -23.5t-67.5 -61t-37 -84t-11.5 -91.5q0 -47 13.5 -90t39.5 -76t65 -52.5t90 -19.5q38 0 72 11.5t60 33.5t41 52.5t15 69.5v183zM453 0v99q-25 -53 -73.5 -82t-114.5 -29q-55 0 -97.5 20.5t-71.5 56
t-44 82t-15 99.5q0 56 14.5 106.5t44 89t74.5 61.5t107 23q56 0 103 -25.5t73 -75.5v89h20v-514h-20z" />
    <glyph glyph-name="b" unicode="b" horiz-adv-x="527" 
d="M470 246q0 45 -11.5 91.5t-37 84t-68 61t-103.5 23.5q-32 0 -63.5 -11.5t-56.5 -31.5t-40.5 -47t-15.5 -58v-183q0 -39 15 -69.5t41 -52.5t60 -33.5t72 -11.5q51 0 90 19.5t65 52.5t39.5 76t13.5 90zM490 246q0 -53 -15 -99.5t-44 -82t-71.5 -56t-97.5 -20.5
q-66 0 -114.5 29t-73.5 82v-99h-20v720h20v-295q26 50 73 75.5t103 25.5q62 0 107 -23t74.5 -61.5t44 -89t14.5 -106.5z" />
    <glyph glyph-name="c" unicode="c" horiz-adv-x="510" 
d="M473 175q-4 -43 -21 -77.5t-44 -59t-63.5 -37.5t-79.5 -13q-56 0 -98.5 21t-71 56.5t-43.5 82t-15 98.5q0 56 14.5 107t44 89.5t74.5 61t107 22.5q38 0 72 -12t60 -33.5t42.5 -52.5t21.5 -70h-20q-11 70 -58.5 109t-117.5 39q-57 0 -98.5 -21t-68.5 -57t-40 -83t-13 -99
q0 -47 13.5 -90t39.5 -76t65 -52.5t90 -19.5q38 0 71 11.5t58 33.5t40.5 52.5t18.5 69.5h20v0z" />
    <glyph glyph-name="d" unicode="d" horiz-adv-x="527" 
d="M453 358q0 31 -15.5 58t-40.5 47t-56.5 31.5t-63.5 11.5q-62 0 -104 -23.5t-67.5 -61t-37 -84t-11.5 -91.5q0 -47 13.5 -90t39.5 -76t65 -52.5t90 -19.5q38 0 72 11.5t60 33.5t41 52.5t15 69.5v183zM453 0v99q-25 -53 -73.5 -82t-114.5 -29q-55 0 -97.5 20.5t-71.5 56
t-44 82t-15 99.5q0 56 14.5 106.5t44 89t74.5 61.5t107 23q56 0 103 -25.5t73 -75.5v295h20v-720h-20z" />
    <glyph glyph-name="e" unicode="e" horiz-adv-x="510" 
d="M451 371q-14 64 -61 99.5t-113 35.5q-57 0 -98.5 -21t-68.5 -57t-40 -83t-13 -99v-18l394 143v0zM473 175q-4 -43 -21 -77.5t-44 -59t-63.5 -37.5t-79.5 -13q-56 0 -98.5 21t-71 56.5t-43.5 82t-15 98.5q0 56 14.5 107t44 89.5t74.5 61t107 22.5q38 0 72 -12t60 -33.5
t42.5 -52.5t21.5 -70l-414 -151q5 -41 21 -77t41.5 -63t61.5 -43t82 -16q38 0 71 11.5t58 33.5t40.5 52.5t18.5 69.5h20v0z" />
    <glyph glyph-name="f" unicode="f" horiz-adv-x="128" 
d="M187 709q-5 2 -17 2.5t-27 0.5q-12 0 -24 -1.5t-22 -9.5t-16.5 -24t-6.5 -45v-118h54v-20h-54v-494h-20v494h-54v20h54v122q0 55 24.5 75.5t59.5 20.5q23 0 31.5 -1t17.5 -2v-20v0z" />
    <glyph glyph-name="g" unicode="g" horiz-adv-x="519" 
d="M453 358q0 31 -15.5 58t-40.5 47t-56.5 31.5t-63.5 11.5q-62 0 -104 -23.5t-67.5 -61t-37 -84t-11.5 -91.5q0 -47 13.5 -90t39.5 -76t65 -52.5t90 -19.5q38 0 72 11.5t60 33.5t41 52.5t15 69.5v183zM473 -17q0 -106 -56.5 -156t-157.5 -50q-39 0 -74 9t-62 28.5t-43 50.5
t-17 74h20q1 -38 15.5 -65t38.5 -44t55 -25t66 -8q94 0 144.5 45t50.5 141v116q-25 -53 -73.5 -82t-114.5 -29q-55 0 -97.5 20.5t-71.5 56t-44 82t-15 99.5q0 56 14.5 106.5t44 89t74.5 61.5t107 23q56 0 103 -25.5t73 -75.5v89h20v-531v0z" />
    <glyph glyph-name="h" unicode="h" horiz-adv-x="498" 
d="M424 0v338q0 78 -42.5 123t-120.5 45q-46 0 -81 -17.5t-58.5 -47t-35.5 -68.5t-12 -82v-291h-20v720h20v-333q17 68 68 103.5t119 35.5q85 0 134 -50t49 -135v-341h-20z" />
    <glyph glyph-name="i" unicode="i" horiz-adv-x="128" 
d="M54 0v514h20v-514h-20zM91 710q0 -11 -8 -19t-19 -8t-19 8t-8 19t8 19t19 8t19 -8t8 -19z" />
    <glyph glyph-name="j" unicode="j" horiz-adv-x="128" 
d="M74 -17q0 -106 -56.5 -156t-157.5 -50q-39 0 -74 9t-62 28.5t-43 50.5t-17 74h20q1 -38 15.5 -65t38.5 -44t55 -25t66 -8q94 0 144.5 45t50.5 141v531h20v-531v0zM91 710q0 -11 -8 -19t-19 -8t-19 8t-8 19t8 19t19 8t19 -8t8 -19z" />
    <glyph glyph-name="k" unicode="k" horiz-adv-x="281" 
d="M256 0l-182 240v-240h-20v720h20v-446l181 240h26l-194 -257l194 -257h-25z" />
    <glyph glyph-name="l" unicode="l" horiz-adv-x="128" 
d="M54 0v720h20v-720h-20z" />
    <glyph glyph-name="m" unicode="m" horiz-adv-x="868" 
d="M794 0v338q0 77 -42.5 122.5t-120.5 45.5q-46 0 -81 -17.5t-58.5 -47t-35.5 -68.5t-12 -82v-291h-20v338q0 77 -42.5 122.5t-120.5 45.5q-46 0 -81 -17.5t-58.5 -47t-35.5 -68.5t-12 -82v-291h-20v514h20v-127q17 69 67.5 104t119.5 35q76 0 123 -40.5t58 -109.5
q17 73 65.5 111.5t123.5 38.5q85 0 134 -50t49 -135v-341h-20z" />
    <glyph glyph-name="n" unicode="n" horiz-adv-x="498" 
d="M424 0v338q0 78 -42.5 123t-120.5 45q-46 0 -81 -17.5t-58.5 -47t-35.5 -68.5t-12 -82v-291h-20v514h20v-127q17 68 68 103.5t119 35.5q85 0 134 -50t49 -135v-341h-20z" />
    <glyph glyph-name="o" unicode="o" horiz-adv-x="537" 
d="M480 257q0 48 -13.5 93t-40.5 79.5t-66.5 55.5t-90.5 21q-52 0 -91.5 -21t-66.5 -55.5t-40.5 -79.5t-13.5 -93q0 -49 13.5 -94t40.5 -79.5t66.5 -55t91.5 -20.5q51 0 90.5 20.5t66.5 55t40.5 79.5t13.5 94zM500 257q0 -53 -15 -101.5t-44.5 -86t-72.5 -59.5t-100 -22
q-56 0 -99.5 22t-72.5 59.5t-44 86t-15 101.5q0 52 15 101t44.5 86t72.5 59.5t100 22.5q56 0 99 -22.5t72.5 -59.5t44.5 -86t15 -101z" />
    <glyph glyph-name="p" unicode="p" horiz-adv-x="527" 
d="M470 246q0 45 -11.5 91.5t-37 84t-68 61t-103.5 23.5q-32 0 -63.5 -11.5t-56.5 -31.5t-40.5 -47t-15.5 -58v-183q0 -39 15 -69.5t41 -52.5t60 -33.5t72 -11.5q51 0 90 19.5t65 52.5t39.5 76t13.5 90zM490 246q0 -53 -15 -99.5t-44 -82t-71.5 -56t-97.5 -20.5
q-66 0 -114.5 29t-73.5 82v-305h-20v720h20v-89q26 50 73 75.5t103 25.5q62 0 107 -23t74.5 -61.5t44 -89t14.5 -106.5z" />
    <glyph glyph-name="q" unicode="q" horiz-adv-x="527" 
d="M453 358q0 31 -15.5 58t-40.5 47t-56.5 31.5t-63.5 11.5q-62 0 -104 -23.5t-67.5 -61t-37 -84t-11.5 -91.5q0 -47 13.5 -90t39.5 -76t65 -52.5t90 -19.5q38 0 72 11.5t60 33.5t41 52.5t15 69.5v183zM453 -206v305q-25 -53 -73.5 -82t-114.5 -29q-55 0 -97.5 20.5
t-71.5 56t-44 82t-15 99.5q0 56 14.5 106.5t44 89t74.5 61.5t107 23q56 0 103 -25.5t73 -75.5v89h20v-720h-20z" />
    <glyph glyph-name="r" unicode="r" horiz-adv-x="277" 
d="M261 506q-46 0 -81 -17.5t-58.5 -47t-35.5 -68.5t-12 -82v-291h-20v514h20v-127q17 69 67.5 104t119.5 35h16z" />
    <glyph glyph-name="s" unicode="s" horiz-adv-x="434" 
d="M411 131q0 -39 -16.5 -66t-43 -44t-60 -25t-66.5 -8q-102 0 -155 45.5t-53 142.5h20q0 -86 49 -127t139 -41q28 0 57.5 6.5t53.5 21t39.5 37.5t15.5 56q0 34 -15.5 55t-40 34.5t-56.5 21.5t-65 16q-32 8 -63.5 15.5t-57 22t-41 38.5t-15.5 65q0 21 9 44t30 42t54 31
t81 12q86 0 136 -39t50 -125h-20q0 39 -12 66t-34 44.5t-52.5 25.5t-67.5 8q-54 0 -85 -14.5t-46 -33.5t-19 -36.5t-4 -24.5q0 -38 19 -60t47 -34.5t61 -19.5t62 -14q30 -8 59.5 -16.5t53 -23.5t38 -38t14.5 -60z" />
    <glyph glyph-name="t" unicode="t" horiz-adv-x="128" 
d="M74 494v-494h-20v494h-54v20h54v138l20 41v-179h54v-20h-54z" />
    <glyph glyph-name="u" unicode="u" horiz-adv-x="498" 
d="M424 0v127q-17 -68 -68 -103.5t-119 -35.5q-85 0 -134 50t-49 135v341h20v-338q0 -78 42.5 -123t120.5 -45q46 0 81 17.5t58.5 47t35.5 68.5t12 82v291h20v-514h-20z" />
    <glyph glyph-name="v" unicode="v" horiz-adv-x="397" 
d="M210 0h-23l-187 514h23l176 -482l175 482h23z" />
    <glyph glyph-name="w" unicode="w" horiz-adv-x="868" 
d="M794 0v127q-17 -69 -67.5 -104t-119.5 -35q-76 0 -123 40.5t-58 109.5q-17 -73 -65.5 -111.5t-123.5 -38.5q-85 0 -134 50t-49 135v341h20v-338q0 -77 42.5 -122.5t120.5 -45.5q46 0 81 17.5t58.5 47t35.5 68.5t12 82v291h20v-338q0 -77 42.5 -122.5t120.5 -45.5
q46 0 81 17.5t58.5 47t35.5 68.5t12 82v291h20v-514h-20z" />
    <glyph glyph-name="x" unicode="x" horiz-adv-x="413" 
d="M388 0l-181 240l-182 -240h-25l194 257l-194 257h25l181 -240l182 240h25l-194 -257l194 -257h-25z" />
    <glyph glyph-name="y" unicode="y" horiz-adv-x="498" 
d="M444 -17q0 -106 -56.5 -156t-157.5 -50q-39 0 -74 9t-62 28.5t-43 50.5t-17 74h20q1 -38 15.5 -65t38.5 -44t55 -25t66 -8q94 0 144.5 45t50.5 141v144q-17 -68 -68 -103.5t-119 -35.5q-85 0 -134 50t-49 135v341h20v-338q0 -78 42.5 -123t120.5 -45q46 0 81 17.5
t58.5 47t35.5 68.5t12 82v291h20v-531v0z" />
    <glyph glyph-name="z" unicode="z" horiz-adv-x="407" 
d="M407 84q0 -35 -20.5 -59.5t-75.5 -24.5h-306v25l360 469h-333v20h354v-25l-360 -469h281q29 0 45 6.5t24 16.5t9.5 22t1.5 24l20 -5v0z" />
    <glyph glyph-name="braceleft" unicode="{" horiz-adv-x="285" 
d="M190 -206q-42 0 -57.5 27t-15.5 84v172q0 61 -14 102.5t-58 70.5v20q16 3 29.5 18t23 38t14.5 52t5 59v174q0 57 15.5 83t57.5 26h50v-20h-48q-30 0 -42.5 -22.5t-12.5 -84.5v-173q0 -22 -4 -47t-13 -48t-22.5 -41t-32.5 -26q33 -16 52.5 -61.5t19.5 -102.5v-171
q0 -33 3 -54.5t10 -33.5t17.5 -16.5t24.5 -4.5h48v-20h-50z" />
    <glyph glyph-name="bar" unicode="|" horiz-adv-x="128" 
d="M54 0v720h20v-720h-20z" />
    <glyph glyph-name="braceright" unicode="}" horiz-adv-x="285" 
d="M240 250q-44 -29 -58 -70.5t-14 -102.5v-172q0 -57 -15.5 -84t-57.5 -27h-50v20h48q14 0 24.5 4.5t17 16.5t10 33.5t3.5 54.5v171q0 57 19.5 102.5t52.5 61.5q-19 8 -32.5 26t-22.5 41t-13 48t-4 47v173q0 62 -12.5 84.5t-42.5 22.5h-48v20h50q42 0 57.5 -26t15.5 -83
v-174q0 -30 5 -59t14.5 -52t23 -38t29.5 -18v-20v0z" />
    <glyph glyph-name="asciitilde" unicode="~" horiz-adv-x="520" 
d="M483 402q-10 -16 -21 -31.5t-24 -28t-29 -20t-35 -7.5q-25 0 -48 10t-49 22q-26 11 -54.5 24.5t-67.5 13.5q-34 0 -57 -21t-41 -53l-20 6q19 35 47.5 61t70.5 27q27 1 57.5 -10t59.5 -24q30 -14 56.5 -25t46.5 -11q30 0 50.5 23t37.5 50l20 -6v0z" />
    <glyph glyph-name="Adieresis" unicode="&#xc4;" 
d="M420 519q0 48 -9 85t-29 62t-53.5 38t-81.5 13q-49 0 -82 -13t-53.5 -38.5t-29 -62t-8.5 -84.5v-149h346v149zM420 0v350h-346v-350h-20v542q0 94 48.5 144.5t144.5 50.5t144.5 -50.5t48.5 -144.5v-542h-20zM198 809q0 -11 -8 -19t-19 -8t-19 8t-8 19t8 19t19 8t19 -8
t8 -19zM353 809q0 -11 -8 -19t-19 -8t-19 8t-8 19t8 19t19 8t19 -8t8 -19z" />
    <glyph glyph-name="Aring" unicode="&#xc5;" 
d="M420 519q0 48 -9 85t-29 62t-53.5 38t-81.5 13q-49 0 -82 -13t-53.5 -38.5t-29 -62t-8.5 -84.5v-149h346v149zM315 829q0 28 -20 48t-48 20t-48 -20t-20 -48t20 -48t48 -20t48 20t20 48zM420 0v350h-346v-350h-20v542q0 94 48.5 144.5t144.5 50.5t144.5 -50.5
t48.5 -144.5v-542h-20zM335 829q0 -18 -7 -34t-19 -28t-28 -19t-34 -7t-34 7t-28 19t-19 28t-7 34t7 34t19 28t28 19t34 7t34 -7t28 -19t19 -28t7 -34z" />
    <glyph glyph-name="Ccedilla" unicode="&#xc7;" horiz-adv-x="703" 
d="M666 280q-9 -63 -31.5 -116.5t-59 -93t-87.5 -62.5t-117 -25l-29 -39q7 1 13 3.5t20 2.5q29 0 52 -13.5t23 -46.5q0 -22 -8 -36t-21.5 -22.5t-31.5 -11.5t-37 -3q-26 0 -47 6t-35 11l9 19q17 -6 35 -11t38 -5q14 0 28 2.5t25 8.5t18 16.5t7 25.5q0 10 -6 18t-14 12.5
t-18 7t-17 2.5q-32 0 -54 -13l-15 10l44 56q-76 2 -134.5 34t-98 83t-60 117t-20.5 137q0 76 21.5 145.5t64 122.5t105.5 84t145 31q48 0 98.5 -16.5t93 -46.5t71 -73t30.5 -95h-20q-5 49 -31 88.5t-64.5 66.5t-85 41.5t-92.5 14.5q-77 0 -135.5 -30t-99 -80.5t-61 -116
t-20.5 -136.5q0 -68 20 -131t58.5 -112t95 -78.5t129.5 -29.5q64 0 113.5 21t85 57.5t57.5 87.5t30 111h20v0z" />
    <glyph glyph-name="Eacute" unicode="&#xc9;" 
d="M54 0v720h391v-20h-371v-330h344v-20h-344v-330h375v-20h-395zM229 765h-15l132 144h29z" />
    <glyph glyph-name="Ntilde" unicode="&#xd1;" 
d="M420 0v519q0 48 -9 85t-29 62t-53.5 38t-81.5 13q-49 0 -82 -13t-53.5 -38.5t-29 -62t-8.5 -84.5v-519h-20v542q0 94 48.5 144.5t144.5 50.5t144.5 -50.5t48.5 -144.5v-542h-20zM406 856q0 -29 -17 -52t-52 -23q-19 0 -35 9t-31 20t-30 20t-31 9q-11 0 -19.5 -5.5
t-15 -14.5t-10 -19.5t-3.5 -19.5h-20q0 14 5.5 28t15 25.5t22 18.5t25.5 7q17 0 33.5 -9t32.5 -20t31 -20t30 -9q23 0 36 17t13 38h20v0z" />
    <glyph glyph-name="Odieresis" unicode="&#xd6;" horiz-adv-x="732" 
d="M675 360q0 71 -19.5 135.5t-58 114t-96.5 78.5t-135 29t-135 -29t-96.5 -78.5t-58 -114t-19.5 -135.5t19.5 -135.5t58 -114t96.5 -78.5t135 -29t135 29t96.5 78.5t58 114t19.5 135.5zM695 360q0 -75 -21 -143.5t-62.5 -120t-103 -82.5t-142.5 -31t-142.5 31t-103 82.5
t-62.5 120t-21 143.5t21 143.5t62.5 120t103 82.5t142.5 31t142.5 -31t103 -82.5t62.5 -120t21 -143.5zM311 809q0 -11 -8 -19t-19 -8t-19 8t-8 19t8 19t19 8t19 -8t8 -19zM466 809q0 -11 -8 -19t-19 -8t-19 8t-8 19t8 19t19 8t19 -8t8 -19z" />
    <glyph glyph-name="Udieresis" unicode="&#xdc;" 
d="M440 178q0 -94 -48.5 -144.5t-144.5 -50.5t-144.5 50.5t-48.5 144.5v542h20v-519q0 -48 9 -85t29 -62t53.5 -38t81.5 -13q49 0 82 13t53 38.5t29 62t9 84.5v519h20v-542v0zM206 809q0 -11 -8 -19t-19 -8t-19 8t-8 19t8 19t19 8t19 -8t8 -19zM361 809q0 -11 -8 -19t-19 -8
t-19 8t-8 19t8 19t19 8t19 -8t8 -19z" />
    <glyph glyph-name="aacute" unicode="&#xe1;" horiz-adv-x="527" 
d="M453 358q0 31 -15.5 58t-40.5 47t-56.5 31.5t-63.5 11.5q-62 0 -104 -23.5t-67.5 -61t-37 -84t-11.5 -91.5q0 -47 13.5 -90t39.5 -76t65 -52.5t90 -19.5q38 0 72 11.5t60 33.5t41 52.5t15 69.5v183zM453 0v99q-25 -53 -73.5 -82t-114.5 -29q-55 0 -97.5 20.5t-71.5 56
t-44 82t-15 99.5q0 56 14.5 106.5t44 89t74.5 61.5t107 23q56 0 103 -25.5t73 -75.5v89h20v-514h-20zM201 565h-15l132 144h29z" />
    <glyph glyph-name="agrave" unicode="&#xe0;" horiz-adv-x="527" 
d="M453 358q0 31 -15.5 58t-40.5 47t-56.5 31.5t-63.5 11.5q-62 0 -104 -23.5t-67.5 -61t-37 -84t-11.5 -91.5q0 -47 13.5 -90t39.5 -76t65 -52.5t90 -19.5q38 0 72 11.5t60 33.5t41 52.5t15 69.5v183zM453 0v99q-25 -53 -73.5 -82t-114.5 -29q-55 0 -97.5 20.5t-71.5 56
t-44 82t-15 99.5q0 56 14.5 106.5t44 89t74.5 61.5t107 23q56 0 103 -25.5t73 -75.5v89h20v-514h-20zM327 565l-139 144h29l125 -144h-15z" />
    <glyph glyph-name="acircumflex" unicode="&#xe2;" horiz-adv-x="527" 
d="M453 358q0 31 -15.5 58t-40.5 47t-56.5 31.5t-63.5 11.5q-62 0 -104 -23.5t-67.5 -61t-37 -84t-11.5 -91.5q0 -47 13.5 -90t39.5 -76t65 -52.5t90 -19.5q38 0 72 11.5t60 33.5t41 52.5t15 69.5v183zM453 0v99q-25 -53 -73.5 -82t-114.5 -29q-55 0 -97.5 20.5t-71.5 56
t-44 82t-15 99.5q0 56 14.5 106.5t44 89t74.5 61.5t107 23q56 0 103 -25.5t73 -75.5v89h20v-514h-20zM372 570l-103 123l-99 -123h-20l113 139h15l114 -139h-20z" />
    <glyph glyph-name="adieresis" unicode="&#xe4;" horiz-adv-x="527" 
d="M453 358q0 31 -15.5 58t-40.5 47t-56.5 31.5t-63.5 11.5q-62 0 -104 -23.5t-67.5 -61t-37 -84t-11.5 -91.5q0 -47 13.5 -90t39.5 -76t65 -52.5t90 -19.5q38 0 72 11.5t60 33.5t41 52.5t15 69.5v183zM453 0v99q-25 -53 -73.5 -82t-114.5 -29q-55 0 -97.5 20.5t-71.5 56
t-44 82t-15 99.5q0 56 14.5 106.5t44 89t74.5 61.5t107 23q56 0 103 -25.5t73 -75.5v89h20v-514h-20zM231 609q0 -11 -8 -19t-19 -8t-19 8t-8 19t8 19t19 8t19 -8t8 -19zM386 609q0 -11 -8 -19t-19 -8t-19 8t-8 19t8 19t19 8t19 -8t8 -19z" />
    <glyph glyph-name="atilde" unicode="&#xe3;" horiz-adv-x="527" 
d="M453 358q0 31 -15.5 58t-40.5 47t-56.5 31.5t-63.5 11.5q-62 0 -104 -23.5t-67.5 -61t-37 -84t-11.5 -91.5q0 -47 13.5 -90t39.5 -76t65 -52.5t90 -19.5q38 0 72 11.5t60 33.5t41 52.5t15 69.5v183zM453 0v99q-25 -53 -73.5 -82t-114.5 -29q-55 0 -97.5 20.5t-71.5 56
t-44 82t-15 99.5q0 56 14.5 106.5t44 89t74.5 61.5t107 23q56 0 103 -25.5t73 -75.5v89h20v-514h-20zM413 656q0 -29 -17 -52t-52 -23q-19 0 -35 9t-31 20t-30 20t-31 9q-11 0 -19.5 -5.5t-15 -14.5t-10 -19.5t-3.5 -19.5h-20q0 14 5.5 28t15 25.5t22 18.5t25.5 7
q17 0 33.5 -9t32.5 -20t31 -20t30 -9q23 0 36 17t13 38h20v0z" />
    <glyph glyph-name="aring" unicode="&#xe5;" horiz-adv-x="527" 
d="M453 358q0 31 -15.5 58t-40.5 47t-56.5 31.5t-63.5 11.5q-62 0 -104 -23.5t-67.5 -61t-37 -84t-11.5 -91.5q0 -47 13.5 -90t39.5 -76t65 -52.5t90 -19.5q38 0 72 11.5t60 33.5t41 52.5t15 69.5v183zM349 674q0 28 -20 48t-48 20t-48 -20t-20 -48t20 -48t48 -20t48 20
t20 48zM453 0v99q-25 -53 -73.5 -82t-114.5 -29q-55 0 -97.5 20.5t-71.5 56t-44 82t-15 99.5q0 56 14.5 106.5t44 89t74.5 61.5t107 23q56 0 103 -25.5t73 -75.5v89h20v-514h-20zM369 674q0 -18 -7 -34t-19 -28t-28 -19t-34 -7t-34 7t-28 19t-19 28t-7 34t7 34t19 28t28 19
t34 7t34 -7t28 -19t19 -28t7 -34z" />
    <glyph glyph-name="ccedilla" unicode="&#xe7;" horiz-adv-x="510" 
d="M473 175q-8 -85 -61.5 -134.5t-137.5 -52.5l-32 -44q7 1 13 3.5t20 2.5q29 0 52 -13.5t23 -46.5q0 -22 -8 -36t-21.5 -22.5t-31.5 -11.5t-37 -3q-26 0 -47 6t-35 11l9 19q17 -6 35 -11t38 -5q14 0 28 2.5t25 8.5t18 16.5t7 25.5q0 10 -6 18t-14 12.5t-18 7t-17 2.5
q-32 0 -54 -13l-15 10l48 61q-53 2 -93.5 24t-68 57t-41.5 81t-14 96q0 56 14.5 107t44 89.5t74.5 61t107 22.5q38 0 72 -12t60 -33.5t42.5 -52.5t21.5 -70h-20q-11 70 -58.5 109t-117.5 39q-57 0 -98.5 -21t-68.5 -57t-40 -83t-13 -99q0 -47 13.5 -90t39.5 -76t65 -52.5
t90 -19.5q38 0 71 11.5t58 33.5t40.5 52.5t18.5 69.5h20v0z" />
    <glyph glyph-name="eacute" unicode="&#xe9;" horiz-adv-x="510" 
d="M451 371q-14 64 -61 99.5t-113 35.5q-57 0 -98.5 -21t-68.5 -57t-40 -83t-13 -99v-18l394 143v0zM473 175q-4 -43 -21 -77.5t-44 -59t-63.5 -37.5t-79.5 -13q-56 0 -98.5 21t-71 56.5t-43.5 82t-15 98.5q0 56 14.5 107t44 89.5t74.5 61t107 22.5q38 0 72 -12t60 -33.5
t42.5 -52.5t21.5 -70l-414 -151q5 -41 21 -77t41.5 -63t61.5 -43t82 -16q38 0 71 11.5t58 33.5t40.5 52.5t18.5 69.5h20v0zM210 565h-15l132 144h29z" />
    <glyph glyph-name="egrave" unicode="&#xe8;" horiz-adv-x="510" 
d="M451 371q-14 64 -61 99.5t-113 35.5q-57 0 -98.5 -21t-68.5 -57t-40 -83t-13 -99v-18l394 143v0zM473 175q-4 -43 -21 -77.5t-44 -59t-63.5 -37.5t-79.5 -13q-56 0 -98.5 21t-71 56.5t-43.5 82t-15 98.5q0 56 14.5 107t44 89.5t74.5 61t107 22.5q38 0 72 -12t60 -33.5
t42.5 -52.5t21.5 -70l-414 -151q5 -41 21 -77t41.5 -63t61.5 -43t82 -16q38 0 71 11.5t58 33.5t40.5 52.5t18.5 69.5h20v0zM336 565l-139 144h29l125 -144h-15z" />
    <glyph glyph-name="ecircumflex" unicode="&#xea;" horiz-adv-x="510" 
d="M451 371q-14 64 -61 99.5t-113 35.5q-57 0 -98.5 -21t-68.5 -57t-40 -83t-13 -99v-18l394 143v0zM473 175q-4 -43 -21 -77.5t-44 -59t-63.5 -37.5t-79.5 -13q-56 0 -98.5 21t-71 56.5t-43.5 82t-15 98.5q0 56 14.5 107t44 89.5t74.5 61t107 22.5q38 0 72 -12t60 -33.5
t42.5 -52.5t21.5 -70l-414 -151q5 -41 21 -77t41.5 -63t61.5 -43t82 -16q38 0 71 11.5t58 33.5t40.5 52.5t18.5 69.5h20v0zM381 570l-103 123l-99 -123h-20l113 139h15l114 -139h-20z" />
    <glyph glyph-name="edieresis" unicode="&#xeb;" horiz-adv-x="510" 
d="M451 371q-14 64 -61 99.5t-113 35.5q-57 0 -98.5 -21t-68.5 -57t-40 -83t-13 -99v-18l394 143v0zM473 175q-4 -43 -21 -77.5t-44 -59t-63.5 -37.5t-79.5 -13q-56 0 -98.5 21t-71 56.5t-43.5 82t-15 98.5q0 56 14.5 107t44 89.5t74.5 61t107 22.5q38 0 72 -12t60 -33.5
t42.5 -52.5t21.5 -70l-414 -151q5 -41 21 -77t41.5 -63t61.5 -43t82 -16q38 0 71 11.5t58 33.5t40.5 52.5t18.5 69.5h20v0zM230 609q0 -11 -8 -19t-19 -8t-19 8t-8 19t8 19t19 8t19 -8t8 -19zM385 609q0 -11 -8 -19t-19 -8t-19 8t-8 19t8 19t19 8t19 -8t8 -19z" />
    <glyph glyph-name="iacute" unicode="&#xed;" horiz-adv-x="128" 
d="M54 0v514h20v-514h-20zM5 565h-15l132 144h29z" />
    <glyph glyph-name="igrave" unicode="&#xec;" horiz-adv-x="128" 
d="M54 0v514h20v-514h-20zM131 565l-139 144h29l125 -144h-15z" />
    <glyph glyph-name="icircumflex" unicode="&#xee;" horiz-adv-x="128" 
d="M54 0v514h20v-514h-20zM166 570l-103 123l-99 -123h-20l113 139h15l114 -139h-20z" />
    <glyph glyph-name="idieresis" unicode="&#xef;" horiz-adv-x="128" 
d="M54 0v514h20v-514h-20zM15 609q0 -11 -8 -19t-19 -8t-19 8t-8 19t8 19t19 8t19 -8t8 -19zM170 609q0 -11 -8 -19t-19 -8t-19 8t-8 19t8 19t19 8t19 -8t8 -19z" />
    <glyph glyph-name="ntilde" unicode="&#xf1;" horiz-adv-x="498" 
d="M424 0v338q0 78 -42.5 123t-120.5 45q-46 0 -81 -17.5t-58.5 -47t-35.5 -68.5t-12 -82v-291h-20v514h20v-127q17 68 68 103.5t119 35.5q85 0 134 -50t49 -135v-341h-20zM402 656q0 -29 -17 -52t-52 -23q-19 0 -35 9t-31 20t-30 20t-31 9q-11 0 -19.5 -5.5t-15 -14.5
t-10 -19.5t-3.5 -19.5h-20q0 14 5.5 28t15 25.5t22 18.5t25.5 7q17 0 33.5 -9t32.5 -20t31 -20t30 -9q23 0 36 17t13 38h20v0z" />
    <glyph glyph-name="oacute" unicode="&#xf3;" horiz-adv-x="537" 
d="M480 257q0 48 -13.5 93t-40.5 79.5t-66.5 55.5t-90.5 21q-52 0 -91.5 -21t-66.5 -55.5t-40.5 -79.5t-13.5 -93q0 -49 13.5 -94t40.5 -79.5t66.5 -55t91.5 -20.5q51 0 90.5 20.5t66.5 55t40.5 79.5t13.5 94zM500 257q0 -53 -15 -101.5t-44.5 -86t-72.5 -59.5t-100 -22
q-56 0 -99.5 22t-72.5 59.5t-44 86t-15 101.5q0 52 15 101t44.5 86t72.5 59.5t100 22.5q56 0 99 -22.5t72.5 -59.5t44.5 -86t15 -101zM220 565h-15l132 144h29z" />
    <glyph glyph-name="ograve" unicode="&#xf2;" horiz-adv-x="537" 
d="M480 257q0 48 -13.5 93t-40.5 79.5t-66.5 55.5t-90.5 21q-52 0 -91.5 -21t-66.5 -55.5t-40.5 -79.5t-13.5 -93q0 -49 13.5 -94t40.5 -79.5t66.5 -55t91.5 -20.5q51 0 90.5 20.5t66.5 55t40.5 79.5t13.5 94zM500 257q0 -53 -15 -101.5t-44.5 -86t-72.5 -59.5t-100 -22
q-56 0 -99.5 22t-72.5 59.5t-44 86t-15 101.5q0 52 15 101t44.5 86t72.5 59.5t100 22.5q56 0 99 -22.5t72.5 -59.5t44.5 -86t15 -101zM326 565l-139 144h29l125 -144h-15z" />
    <glyph glyph-name="ocircumflex" unicode="&#xf4;" horiz-adv-x="537" 
d="M480 257q0 48 -13.5 93t-40.5 79.5t-66.5 55.5t-90.5 21q-52 0 -91.5 -21t-66.5 -55.5t-40.5 -79.5t-13.5 -93q0 -49 13.5 -94t40.5 -79.5t66.5 -55t91.5 -20.5q51 0 90.5 20.5t66.5 55t40.5 79.5t13.5 94zM500 257q0 -53 -15 -101.5t-44.5 -86t-72.5 -59.5t-100 -22
q-56 0 -99.5 22t-72.5 59.5t-44 86t-15 101.5q0 52 15 101t44.5 86t72.5 59.5t100 22.5q56 0 99 -22.5t72.5 -59.5t44.5 -86t15 -101zM371 570l-103 123l-99 -123h-20l113 139h15l114 -139h-20z" />
    <glyph glyph-name="odieresis" unicode="&#xf6;" horiz-adv-x="537" 
d="M480 257q0 48 -13.5 93t-40.5 79.5t-66.5 55.5t-90.5 21q-52 0 -91.5 -21t-66.5 -55.5t-40.5 -79.5t-13.5 -93q0 -49 13.5 -94t40.5 -79.5t66.5 -55t91.5 -20.5q51 0 90.5 20.5t66.5 55t40.5 79.5t13.5 94zM500 257q0 -53 -15 -101.5t-44.5 -86t-72.5 -59.5t-100 -22
q-56 0 -99.5 22t-72.5 59.5t-44 86t-15 101.5q0 52 15 101t44.5 86t72.5 59.5t100 22.5q56 0 99 -22.5t72.5 -59.5t44.5 -86t15 -101zM220 609q0 -11 -8 -19t-19 -8t-19 8t-8 19t8 19t19 8t19 -8t8 -19zM375 609q0 -11 -8 -19t-19 -8t-19 8t-8 19t8 19t19 8t19 -8t8 -19z
" />
    <glyph glyph-name="otilde" unicode="&#xf5;" horiz-adv-x="537" 
d="M480 257q0 48 -13.5 93t-40.5 79.5t-66.5 55.5t-90.5 21q-52 0 -91.5 -21t-66.5 -55.5t-40.5 -79.5t-13.5 -93q0 -49 13.5 -94t40.5 -79.5t66.5 -55t91.5 -20.5q51 0 90.5 20.5t66.5 55t40.5 79.5t13.5 94zM500 257q0 -53 -15 -101.5t-44.5 -86t-72.5 -59.5t-100 -22
q-56 0 -99.5 22t-72.5 59.5t-44 86t-15 101.5q0 52 15 101t44.5 86t72.5 59.5t100 22.5q56 0 99 -22.5t72.5 -59.5t44.5 -86t15 -101zM402 656q0 -29 -17 -52t-52 -23q-19 0 -35 9t-31 20t-30 20t-31 9q-11 0 -19.5 -5.5t-15 -14.5t-10 -19.5t-3.5 -19.5h-20q0 14 5.5 28
t15 25.5t22 18.5t25.5 7q17 0 33.5 -9t32.5 -20t31 -20t30 -9q23 0 36 17t13 38h20v0z" />
    <glyph glyph-name="uacute" unicode="&#xfa;" horiz-adv-x="498" 
d="M424 0v127q-17 -68 -68 -103.5t-119 -35.5q-85 0 -134 50t-49 135v341h20v-338q0 -78 42.5 -123t120.5 -45q46 0 81 17.5t58.5 47t35.5 68.5t12 82v291h20v-514h-20zM190 565h-15l132 144h29z" />
    <glyph glyph-name="ugrave" unicode="&#xf9;" horiz-adv-x="498" 
d="M424 0v127q-17 -68 -68 -103.5t-119 -35.5q-85 0 -134 50t-49 135v341h20v-338q0 -78 42.5 -123t120.5 -45q46 0 81 17.5t58.5 47t35.5 68.5t12 82v291h20v-514h-20zM296 565l-139 144h29l125 -144h-15z" />
    <glyph glyph-name="ucircumflex" unicode="&#xfb;" horiz-adv-x="498" 
d="M424 0v127q-17 -68 -68 -103.5t-119 -35.5q-85 0 -134 50t-49 135v341h20v-338q0 -78 42.5 -123t120.5 -45q46 0 81 17.5t58.5 47t35.5 68.5t12 82v291h20v-514h-20zM351 570l-103 123l-99 -123h-20l113 139h15l114 -139h-20z" />
    <glyph glyph-name="udieresis" unicode="&#xfc;" horiz-adv-x="498" 
d="M424 0v127q-17 -68 -68 -103.5t-119 -35.5q-85 0 -134 50t-49 135v341h20v-338q0 -78 42.5 -123t120.5 -45q46 0 81 17.5t58.5 47t35.5 68.5t12 82v291h20v-514h-20zM200 609q0 -11 -8 -19t-19 -8t-19 8t-8 19t8 19t19 8t19 -8t8 -19zM355 609q0 -11 -8 -19t-19 -8t-19 8
t-8 19t8 19t19 8t19 -8t8 -19z" />
    <glyph glyph-name="dagger" unicode="&#x2020;" horiz-adv-x="526" 
d="M273 451l5 -657h-30l5 657l-208 -5v30l208 -5l-5 249h30l-5 -249l208 5v-30z" />
    <glyph glyph-name="degree" unicode="&#xb0;" horiz-adv-x="360" 
d="M303 589q0 25 -9 47t-25.5 39t-39 27t-49.5 10q-25 0 -47 -10t-39 -27.5t-27 -39.5t-10 -46q0 -27 10 -50t27 -39.5t39 -26t47 -9.5q26 0 48.5 9.5t39 26.5t26 40t9.5 49zM323 589q0 -30 -11 -56.5t-30 -46t-45.5 -31t-56.5 -11.5t-56 11t-45.5 30.5t-30.5 46t-11 57.5
q0 29 11 55t30.5 45.5t45.5 31t56 11.5t56 -11.5t45.5 -31t30.5 -45.5t11 -55z" />
    <glyph glyph-name="cent" unicode="&#xa2;" horiz-adv-x="510" 
d="M473 278q-8 -82 -59 -131.5t-131 -54.5v-92h-20v91q-55 0 -97 21.5t-70.5 56.5t-43.5 82t-15 98q0 55 13.5 104.5t41.5 87.5t70.5 61.5t100.5 26.5v91h20v-91q37 -1 69.5 -13.5t58 -34t41.5 -52t21 -68.5h-20q-11 70 -58.5 109t-117.5 39q-57 0 -98.5 -21t-68.5 -57
t-40 -83t-13 -99q0 -47 13.5 -90t39.5 -76t65 -52.5t90 -19.5q38 0 71 11.5t58 33.5t40.5 52.5t18.5 69.5h20v0z" />
    <glyph glyph-name="sterling" unicode="&#xa3;" horiz-adv-x="530" 
d="M535 72q-35 -40 -73 -64.5t-93 -24.5q-26 0 -50.5 8t-48.5 17t-48 17t-48 8q-36 0 -67 -13.5t-58 -36.5l-18 20q22 19 43.5 42t38 49t26.5 55t10 60q0 34 -7.5 70.5t-24.5 65.5h-76v20h66q-10 20 -22.5 42t-23 45t-17.5 46.5t-7 46.5q0 48 19 83t50.5 58t72.5 34t84 11
q58 0 103.5 -17.5t75.5 -50.5t43.5 -79.5t7.5 -103.5h-20q5 52 -7 95t-39 73t-68.5 46.5t-95.5 16.5q-39 0 -76 -9.5t-66 -29.5t-46.5 -51.5t-17.5 -75.5q0 -23 7.5 -46.5t18.5 -46.5t23.5 -45t23.5 -42h158v-20h-149q17 -31 23.5 -66t6.5 -70q0 -59 -27 -106.5t-71 -85.5
q22 17 48.5 26.5t54.5 9.5q26 0 51 -8t49 -17t47.5 -17t47.5 -8q25 0 46 7t39 18t34.5 26t33.5 32l13 -14v0z" />
    <glyph glyph-name="section" unicode="&#xa7;" horiz-adv-x="509" 
d="M470 231q0 46 -22.5 74.5t-56 45.5t-73.5 26.5t-75 18.5q-25 6 -49.5 11.5t-49.5 13.5q-46 -18 -75.5 -52t-29.5 -86q0 -47 22.5 -75t56.5 -45t74 -26.5t75 -18.5q25 -6 49.5 -11.5t48.5 -13.5q46 18 75.5 52t29.5 86zM490 -60q0 -44 -20 -75t-51.5 -50.5t-70.5 -28.5
t-77 -9q-51 0 -94 11t-74 36t-48.5 63.5t-17.5 94.5h20q0 -50 16.5 -85.5t45 -57.5t67.5 -32t85 -10q33 0 68.5 7.5t64.5 24.5t47.5 44.5t18.5 66.5q0 49 -24.5 78t-61 45.5t-79 25t-78.5 17.5q-37 9 -74 20t-67 30t-48.5 48.5t-18.5 75.5q0 54 25.5 91t71.5 61
q-49 21 -73 54.5t-24 87.5q0 44 20 75t51.5 50.5t70.5 28.5t77 9q51 0 94 -11t74 -36t48.5 -64t17.5 -94h-20q0 50 -16.5 85.5t-45 57.5t-67.5 32t-85 10q-33 0 -68.5 -7.5t-64.5 -24.5t-47.5 -44.5t-18.5 -66.5q0 -50 24.5 -78.5t61 -45t79 -25t78.5 -17.5q37 -9 74 -20.5
t67 -30t48.5 -48t18.5 -75.5q0 -54 -25 -91t-71 -61q49 -21 72.5 -54.5t23.5 -87.5z" />
    <glyph glyph-name="bullet" unicode="&#x2022;" horiz-adv-x="253" 
d="M216 360q0 -38 -26 -64t-64 -26q-37 0 -63 26t-26 64q0 37 25.5 63t63.5 26q37 0 63.5 -26t26.5 -63z" />
    <glyph glyph-name="paragraph" unicode="&#xb6;" horiz-adv-x="456" 
d="M382 -206v906h-103v-906h-20v540q-50 0 -90.5 15t-70 41t-45.5 60.5t-16 73.5q0 95 58.5 145.5t164.5 50.5h142v-926h-20z" />
    <glyph glyph-name="germandbls" unicode="&#xdf;" horiz-adv-x="488" 
d="M451 212q0 -57 -15.5 -97t-45 -65.5t-72 -37.5t-97.5 -12h-20v20q7 0 13 -0.5t13 -0.5q97 0 150.5 45.5t53.5 146.5q0 55 -17 90t-47 55t-71 27t-88 7h-7v20h7q38 0 72 8.5t59.5 27t40 48t14.5 71.5q0 35 -13.5 62.5t-36 46t-52 28.5t-62.5 10q-74 0 -115 -39.5
t-41 -114.5v-558h-20v560q0 82 47.5 127t128.5 45q36 0 69.5 -11.5t59 -33t40.5 -52.5t15 -69q0 -63 -31.5 -108t-95.5 -56q85 -8 124.5 -58.5t39.5 -131.5z" />
    <glyph glyph-name="registered" unicode="&#xae;" horiz-adv-x="458" 
d="M293 590q0 26 -17 34t-40 8h-55v-84h47q11 0 22.5 1.5t20.5 6t15 12.5t6 22h1zM313 590q0 -27 -16 -41t-37 -18l67 -99h-25l-64 97q-14 -1 -30.5 -0.5t-26.5 0.5v-97h-20v219h75q76 0 76 -61h1zM401 545q0 35 -13.5 65.5t-37 53t-54.5 35.5t-67 13t-67 -13t-54.5 -35.5
t-37 -53t-13.5 -65.5t13.5 -65.5t37 -53.5t54.5 -36t67 -13t67 13t54.5 36t37 53.5t13.5 65.5zM421 545q0 -39 -15 -73t-41 -59.5t-61 -40t-75 -14.5t-75 14.5t-61 40t-41 59.5t-15 73t15 73t41 59.5t61 40t75 14.5t75 -14.5t61 -40t41 -59.5t15 -73z" />
    <glyph glyph-name="copyright" unicode="&#xa9;" horiz-adv-x="822" 
d="M604 279q-8 -35 -24.5 -63.5t-40 -49t-53.5 -32t-64 -11.5q-50 0 -91 18t-69.5 49t-44 73t-15.5 91t15 91t42.5 72.5t68 47.5t91.5 17q35 0 66.5 -10t56.5 -29t41 -47.5t21 -64.5h-20q-5 33 -20 57.5t-37.5 41t-50 24.5t-57.5 8q-47 0 -83.5 -16t-62 -43.5t-38.5 -65.5
t-13 -82t13.5 -82.5t39.5 -67.5t63 -45.5t84 -16.5q55 0 100.5 35t61.5 101h20v0zM765 360q0 73 -28 137.5t-76 112.5t-112.5 76t-137.5 28q-74 0 -138.5 -28t-112.5 -76t-75.5 -112.5t-27.5 -137.5q0 -74 27.5 -138.5t75.5 -112.5t112.5 -75.5t138.5 -27.5q73 0 137.5 27.5
t112.5 75.5t76 112.5t28 138.5zM785 360q0 -78 -29.5 -146t-80 -118.5t-118.5 -80t-146 -29.5t-146 29.5t-118.5 80t-80 118.5t-29.5 146t29.5 146t80 118.5t118.5 80t146 29.5t146 -29.5t118.5 -80t80 -118.5t29.5 -146z" />
    <glyph glyph-name="trademark" unicode="&#x2122;" horiz-adv-x="800" 
d="M188 700v-376h-20v376h-70q-29 0 -34.5 -10.5t-5.5 -27.5l-20 5q0 23 12.5 38t44.5 15h224v-20h-131zM726 324v283q0 51 -20 77t-71 26t-70.5 -26t-19.5 -77v-283h-20v283q0 51 -20 77t-71 26t-71 -26t-20 -77v-283h-20v296q0 52 28.5 80.5t82.5 28.5q75 0 101 -55
q26 55 100 55q55 0 83 -28.5t28 -80.5v-296h-20z" />
    <glyph glyph-name="acute" unicode="&#xb4;" horiz-adv-x="0" 
d="M203 565h-15l132 144h29z" />
    <glyph glyph-name="dieresis" unicode="&#xa8;" horiz-adv-x="0" 
d="M373 609q0 -11 -8 -19t-19 -8t-19 8t-8 19t8 19t19 8t19 -8t8 -19zM218 609q0 -11 -8 -19t-19 -8t-19 8t-8 19t8 19t19 8t19 -8t8 -19z" />
    <glyph glyph-name="AE" unicode="&#xc6;" horiz-adv-x="860" 
d="M420 519q0 48 -9 85t-29 62t-53.5 38t-81.5 13q-49 0 -82 -13t-53.5 -38.5t-29 -62t-8.5 -84.5v-149h346v149zM420 0v350h-346v-350h-20v542q0 94 48.5 144.5t144.5 50.5q65 0 108.5 -24t64.5 -69v76h391v-20h-371v-330h344v-20h-344v-330h375v-20h-395z" />
    <glyph glyph-name="Oslash" unicode="&#xd8;" horiz-adv-x="732" 
d="M675 357q0 74 -19.5 136t-56.5 108l-454 -502q39 -46 94.5 -71t126.5 -25q72 0 129 26.5t97 73.5t61.5 112t21.5 142zM586 617q-40 45 -95 69.5t-125 24.5q-72 0 -129 -26.5t-97 -73.5t-61.5 -112t-21.5 -142q0 -74 19.5 -135.5t55.5 -107.5l454 503v0zM695 357
q0 -76 -21.5 -144t-63 -119t-103 -81t-141.5 -30q-76 0 -134.5 26.5t-100.5 74.5l-71 -79l-15 12l73 81q-40 51 -60.5 117.5t-20.5 141.5q0 76 21.5 144t63 119t103 81t141.5 30q75 0 133.5 -26.5t100.5 -72.5l59 65l15 -12l-61 -68q41 -51 61.5 -117.5t20.5 -142.5z" />
    <glyph glyph-name="plusminus" unicode="&#xb1;" horiz-adv-x="594" 
d="M45 107v20h504v-20h-504zM307 395v-198h-20v198h-242v20h242v198h20v-198h242v-20h-242z" />
    <glyph glyph-name="yen" unicode="&#xa5;" 
d="M440 545q0 -91 -46 -141.5t-137 -53.5v-98h147v-20h-147v-102h147v-20h-147v-110h-20v110h-147v20h147v102h-147v20h147v98q-91 3 -137 53.5t-46 141.5v175h20v-152q0 -48 9 -85t29 -62t53.5 -38t81.5 -13q49 0 82 13t53 38.5t29 62t9 84.5v152h20v-175v0z" />
    <glyph glyph-name="mu" unicode="&#xb5;" horiz-adv-x="498" 
d="M424 0v127q-17 -68 -68 -103.5t-119 -35.5q-59 0 -100.5 24t-62.5 67v-285h-20v720h20v-338q0 -78 42.5 -123t120.5 -45q46 0 81 17.5t58.5 47t35.5 68.5t12 82v291h20v-514h-20z" />
    <glyph glyph-name="ordfeminine" unicode="&#xaa;" horiz-adv-x="365" 
d="M289 630q0 17 -9 32t-23.5 26.5t-32.5 18t-37 6.5q-36 0 -60.5 -13.5t-39.5 -35t-21.5 -48t-6.5 -52.5q0 -27 8 -51.5t23 -43t37.5 -29.5t52.5 -11q22 0 42 6.5t35 18.5t23.5 29.5t8.5 39.5v107zM289 416v47q-41 -54 -109 -54q-34 0 -60.5 12.5t-44.5 34t-27 49.5t-9 59
q0 33 9 63.5t27 54t46 37t66 13.5q29 0 55.5 -11.5t46.5 -36.5v41h20v-309h-20z" />
    <glyph glyph-name="ordmasculine" unicode="&#xba;" horiz-adv-x="375" 
d="M318 571q0 26 -9 51.5t-25.5 45.5t-40.5 32t-55 12t-55.5 -12t-41 -32t-25.5 -45.5t-9 -51.5q0 -27 9 -53t25.5 -46t41 -32.5t55.5 -12.5t55 12.5t40.5 32.5t25.5 46t9 53zM338 571q0 -32 -9.5 -61.5t-28.5 -52.5t-47.5 -36.5t-65.5 -13.5q-36 0 -64 13.5t-47 36.5
t-29 52.5t-10 61.5q0 31 10 60.5t29 51.5t47 35.5t65 13.5t65 -13.5t47 -35.5t28.5 -51.5t9.5 -60.5z" />
    <glyph glyph-name="ae" unicode="&#xe6;" horiz-adv-x="926" 
d="M453 358q0 31 -15.5 58t-40.5 47t-56.5 31.5t-63.5 11.5q-62 0 -104 -23.5t-67.5 -61t-37 -84t-11.5 -91.5q0 -47 13.5 -90t39.5 -76t65 -52.5t90 -19.5q38 0 72 11.5t60 33.5t41 52.5t15 69.5v183zM867 371q-14 64 -61 99.5t-113 35.5q-57 0 -98.5 -21t-68.5 -57
t-40 -83t-13 -99v-18l394 143v0zM889 175q-4 -43 -21 -77.5t-44 -59t-63.5 -37.5t-79.5 -13q-79 0 -131.5 41t-76.5 104v-133h-20v99q-25 -53 -73.5 -82t-114.5 -29q-55 0 -97.5 20.5t-71.5 56t-44 82t-15 99.5q0 56 14.5 106.5t44 89t74.5 61.5t107 23q56 0 103 -25.5
t73 -75.5v89h20v-144q24 68 78.5 112t141.5 44q38 0 72 -12t60 -33.5t42.5 -52.5t21.5 -70l-414 -151q5 -41 21 -77t41.5 -63t61.5 -43t82 -16q38 0 71 11.5t58 33.5t40.5 52.5t18.5 69.5h20v0z" />
    <glyph glyph-name="oslash" unicode="&#xf8;" horiz-adv-x="537" 
d="M480 257q0 45 -12 86t-35 75l-320 -335q26 -35 65 -55t91 -20q51 0 90.5 20.5t66.5 55t40.5 79.5t13.5 94zM421 434q-26 33 -63.5 52.5t-88.5 19.5q-52 0 -91.5 -21t-66.5 -55.5t-40.5 -79.5t-13.5 -93q0 -44 11 -84.5t33 -73.5l320 335v0zM500 257q0 -53 -15 -101.5
t-44.5 -86t-72.5 -59.5t-100 -22q-56 0 -98.5 21.5t-71.5 57.5l-57 -59l-14 14l60 62q-25 35 -37.5 80t-12.5 93q0 52 15 101t44.5 86t72.5 59.5t100 22.5q54 0 96 -20.5t71 -56.5l45 47l14 -14l-47 -49q26 -35 39 -80.5t13 -95.5z" />
    <glyph glyph-name="questiondown" unicode="&#xbf;" horiz-adv-x="488" 
d="M451 226q2 -52 -12 -96t-42 -75.5t-69 -49t-94 -17.5q-41 0 -77 11t-62.5 32t-42 52t-15.5 71q0 37 11 65.5t26 50t32 37t29 26.5q27 26 46 47.5t31 44t17 49.5t5 63v107h20v-107q0 -34 -5 -61t-16 -51.5t-30 -48.5t-47 -51q-6 -6 -22 -19t-33.5 -34t-30.5 -50.5
t-13 -67.5q0 -35 13.5 -62.5t37 -46t56 -28t70.5 -9.5q49 0 87 16t63 44.5t37 69t10 88.5h20v0zM271 704q0 -11 -8 -19t-19 -8t-19 8t-8 19t8 19t19 8t19 -8t8 -19z" />
    <glyph glyph-name="exclamdown" unicode="&#xa1;" horiz-adv-x="128" 
d="M49 0l5 633h20l5 -633h-30zM91 705q0 -11 -8 -19t-19 -8t-19 8t-8 19t8 19t19 8t19 -8t8 -19z" />
    <glyph glyph-name="logicalnot" unicode="&#xac;" horiz-adv-x="128" 
d="M74 391v-391h-20v374l-54 -47v25l54 47v321h20v-304l54 47v-25z" />
    <glyph glyph-name="florin" unicode="&#x192;" horiz-adv-x="242" 
d="M274 709q-4 2 -16 2.5t-27 0.5q-12 0 -24.5 -1.5t-24 -9.5t-21 -24t-15.5 -45l-23 -118h120l-4 -20h-120l-118 -610q-11 -55 -39.5 -75.5t-63.5 -20.5l-1 20q12 0 24.5 1.5t24 9.5t21 24t15.5 45l117 606h-120l4 20h120l24 122q11 55 39.5 75.5t63.5 20.5q23 0 31 -1
t17 -2z" />
    <glyph glyph-name="guillemotleft" unicode="&#xab;" horiz-adv-x="286" 
d="M45 352v16l103 139v-35l-83 -112l83 -112v-35zM138 352v16l103 139v-35l-83 -112l83 -112v-35z" />
    <glyph glyph-name="guillemotright" unicode="&#xbb;" horiz-adv-x="286" 
d="M45 213v35l83 112l-83 112v35l103 -139v-16zM138 213v35l83 112l-83 112v35l103 -139v-16z" />
    <glyph glyph-name="ellipsis" unicode="&#x2026;" horiz-adv-x="1000" 
d="M194 27q0 -11 -8 -19t-19 -8t-19 8t-8 19t8 19t19 8t19 -8t8 -19zM527 27q0 -11 -8 -19t-19 -8t-19 8t-8 19t8 19t19 8t19 -8t8 -19zM860 27q0 -11 -8 -19t-19 -8t-19 8t-8 19t8 19t19 8t19 -8t8 -19z" />
    <glyph glyph-name="Agrave" unicode="&#xc0;" 
d="M420 519q0 48 -9 85t-29 62t-53.5 38t-81.5 13q-49 0 -82 -13t-53.5 -38.5t-29 -62t-8.5 -84.5v-149h346v149zM420 0v350h-346v-350h-20v542q0 94 48.5 144.5t144.5 50.5t144.5 -50.5t48.5 -144.5v-542h-20zM324 765l-139 144h29l125 -144h-15z" />
    <glyph glyph-name="Atilde" unicode="&#xc3;" 
d="M420 519q0 48 -9 85t-29 62t-53.5 38t-81.5 13q-49 0 -82 -13t-53.5 -38.5t-29 -62t-8.5 -84.5v-149h346v149zM420 0v350h-346v-350h-20v542q0 94 48.5 144.5t144.5 50.5t144.5 -50.5t48.5 -144.5v-542h-20zM390 856q0 -29 -17 -52t-52 -23q-19 0 -35 9t-31 20t-30 20
t-31 9q-11 0 -19.5 -5.5t-15 -14.5t-10 -19.5t-3.5 -19.5h-20q0 14 5.5 28t15 25.5t22 18.5t25.5 7q17 0 33.5 -9t32.5 -20t31 -20t30 -9q23 0 36 17t13 38h20v0z" />
    <glyph glyph-name="Otilde" unicode="&#xd5;" horiz-adv-x="732" 
d="M675 360q0 71 -19.5 135.5t-58 114t-96.5 78.5t-135 29t-135 -29t-96.5 -78.5t-58 -114t-19.5 -135.5t19.5 -135.5t58 -114t96.5 -78.5t135 -29t135 29t96.5 78.5t58 114t19.5 135.5zM695 360q0 -75 -21 -143.5t-62.5 -120t-103 -82.5t-142.5 -31t-142.5 31t-103 82.5
t-62.5 120t-21 143.5t21 143.5t62.5 120t103 82.5t142.5 31t142.5 -31t103 -82.5t62.5 -120t21 -143.5zM503 856q0 -29 -17 -52t-52 -23q-19 0 -35 9t-31 20t-30 20t-31 9q-11 0 -19.5 -5.5t-15 -14.5t-10 -19.5t-3.5 -19.5h-20q0 14 5.5 28t15 25.5t22 18.5t25.5 7
q17 0 33.5 -9t32.5 -20t31 -20t30 -9q23 0 36 17t13 38h20v0z" />
    <glyph glyph-name="OE" unicode="&#x152;" horiz-adv-x="1086" 
d="M646 506q-5 49 -31 88.5t-64.5 66.5t-85 41.5t-92.5 14.5q-77 0 -135.5 -30t-99 -80.5t-61 -116t-20.5 -136.5q0 -68 20 -131t58.5 -112t95 -78.5t129.5 -29.5q64 0 113.5 21t85 57.5t57.5 87.5t30 111v226zM646 0v193q-16 -47 -41.5 -85.5t-61.5 -66.5t-81.5 -43
t-101.5 -15q-78 0 -138 31t-101.5 82.5t-62.5 118.5t-21 139q0 76 21.5 145.5t64 122.5t105.5 84t145 31q38 0 79 -10.5t78 -30.5t67.5 -48.5t48.5 -64.5v137h391v-20h-371v-330h344v-20h-344v-330h375v-20h-395z" />
    <glyph glyph-name="oe" unicode="&#x153;" horiz-adv-x="953" 
d="M480 257q0 48 -13.5 93t-40.5 79.5t-66.5 55.5t-90.5 21q-52 0 -91.5 -21t-66.5 -55.5t-40.5 -79.5t-13.5 -93q0 -49 13.5 -94t40.5 -79.5t66.5 -55t91.5 -20.5q51 0 90.5 20.5t66.5 55t40.5 79.5t13.5 94zM894 370q-14 64 -61 99.5t-113 35.5q-57 0 -98.5 -21t-68.5 -57
t-40 -83t-13 -99v-18l394 143v0zM916 174q-4 -43 -21 -77.5t-44 -59t-63.5 -37.5t-79.5 -13q-45 0 -81 14t-64 38.5t-46.5 57.5t-27.5 71q-10 -38 -29.5 -71t-47 -57t-64 -38t-80.5 -14q-56 0 -99.5 22t-72.5 59.5t-44 86t-15 101.5q0 52 15 101t44.5 86t72.5 59.5t100 22.5
q45 0 81.5 -14.5t64.5 -40t47 -60t29 -73.5q10 40 28.5 74.5t47 59.5t67 39t86.5 14q38 0 72 -12t60 -33.5t42.5 -52.5t21.5 -70l-414 -151q5 -41 21 -77t41.5 -63t61.5 -43t82 -16q38 0 71 11.5t58 33.5t40.5 52.5t18.5 69.5h20v0z" />
    <glyph glyph-name="endash" unicode="&#x2013;" horiz-adv-x="590" 
d="M45 258v20h500v-20h-500z" />
    <glyph glyph-name="emdash" unicode="&#x2014;" horiz-adv-x="1090" 
d="M45 258v20h1000v-20h-1000z" />
    <glyph glyph-name="quotedblleft" unicode="&#x201c;" horiz-adv-x="207" 
d="M113 527l-113 195l17 10l113 -195zM190 527l-113 195l17 10l113 -195z" />
    <glyph glyph-name="quotedblright" unicode="&#x201d;" horiz-adv-x="207" 
d="M17 527l-17 10l112 195l18 -10zM94 527l-17 10l112 195l18 -10z" />
    <glyph glyph-name="quoteleft" unicode="&#x2018;" horiz-adv-x="130" 
d="M113 527l-113 195l17 10l113 -195z" />
    <glyph glyph-name="quoteright" unicode="&#x2019;" horiz-adv-x="130" 
d="M17 527l-17 10l112 195l18 -10z" />
    <glyph glyph-name="divide" unicode="&#xf7;" horiz-adv-x="594" 
d="M338 148q0 -17 -9 -29t-32 -12q-22 0 -31.5 12t-9.5 29q0 18 12 29.5t29 11.5t29 -12t12 -29zM45 350v20h504v-20h-504zM338 572q0 -17 -9 -29t-32 -12q-22 0 -31.5 12t-9.5 29q0 18 12 29.5t29 11.5t29 -12t12 -29z" />
    <glyph glyph-name="ydieresis" unicode="&#xff;" horiz-adv-x="498" 
d="M444 -17q0 -106 -56.5 -156t-157.5 -50q-39 0 -74 9t-62 28.5t-43 50.5t-17 74h20q1 -38 15.5 -65t38.5 -44t55 -25t66 -8q94 0 144.5 45t50.5 141v144q-17 -68 -68 -103.5t-119 -35.5q-85 0 -134 50t-49 135v341h20v-338q0 -78 42.5 -123t120.5 -45q46 0 81 17.5
t58.5 47t35.5 68.5t12 82v291h20v-531v0zM204 631q0 -11 -8 -19t-19 -8t-19 8t-8 19t8 19t19 8t19 -8t8 -19zM359 631q0 -11 -8 -19t-19 -8t-19 8t-8 19t8 19t19 8t19 -8t8 -19z" />
    <glyph glyph-name="Ydieresis" unicode="&#x178;" 
d="M440 545q0 -91 -46 -141.5t-137 -53.5v-350h-20v350q-91 3 -137 53.5t-46 141.5v175h20v-152q0 -48 9 -85t29 -62t53.5 -38t81.5 -13q49 0 82 13t53 38.5t29 62t9 84.5v152h20v-175v0zM199 809q0 -11 -8 -19t-19 -8t-19 8t-8 19t8 19t19 8t19 -8t8 -19zM354 809
q0 -11 -8 -19t-19 -8t-19 8t-8 19t8 19t19 8t19 -8t8 -19z" />
    <glyph glyph-name="currency" unicode="&#xa4;" horiz-adv-x="570" 
d="M513 340q0 47 -18 88.5t-49 72.5t-72.5 49t-88.5 18t-88.5 -18t-72.5 -49t-49 -72.5t-18 -88.5t18 -88.5t49 -72.5t72.5 -49t88.5 -18t88.5 18t72.5 49t49 72.5t18 88.5zM533 340q0 -45 -16.5 -88.5t-49.5 -79.5l57 -57l-14 -14l-57 57q-35 -32 -78.5 -48.5t-89.5 -17.5
q-45 0 -88.5 16.5t-79.5 49.5l-57 -57l-14 14l57 57q-33 36 -49.5 79.5t-16.5 88.5q1 46 17.5 89.5t48.5 78.5l-57 57l14 14l57 -57q36 33 79.5 49.5t88.5 16.5q46 0 89.5 -16.5t78.5 -49.5l57 57l14 -14l-57 -57q33 -35 49.5 -78.5t16.5 -89.5z" />
    <glyph glyph-name="guilsinglleft" unicode="&#x2039;" horiz-adv-x="193" 
d="M45 352v16l103 139v-35l-83 -112l83 -112v-35z" />
    <glyph glyph-name="guilsinglright" unicode="&#x203a;" horiz-adv-x="193" 
d="M45 213v35l83 112l-83 112v35l103 -139v-16z" />
    <glyph glyph-name="daggerdbl" unicode="&#x2021;" horiz-adv-x="526" 
d="M273 57l5 -263h-30l5 263l-208 -5v30l208 -5v420l-208 -5v30l208 -5l-5 203h30l-5 -203l208 5v-30l-208 5v-420l208 5v-30z" />
    <glyph glyph-name="periodcentered" unicode="&#xb7;" horiz-adv-x="128" 
d="M91 360q0 -11 -8 -19t-19 -8t-19 8t-8 19t8 19t19 8t19 -8t8 -19z" />
    <glyph glyph-name="quotesinglbase" unicode="&#x201a;" horiz-adv-x="130" 
d="M17 -105l-17 10l112 195l18 -10z" />
    <glyph glyph-name="quotedblbase" unicode="&#x201e;" horiz-adv-x="208" 
d="M17 -105l-17 10l112 195l18 -10zM95 -105l-17 10l112 195l18 -10z" />
    <glyph glyph-name="perthousand" unicode="&#x2030;" 
d="M440 545q0 -91 -46 -141.5t-137 -53.5v-350h-20v350q-91 3 -137 53.5t-46 141.5v175h20v-152q0 -48 9 -85t29 -62t53.5 -38t81.5 -13q49 0 82 13t53 38.5t29 62t9 84.5v152h20v-175v0zM229 787h-15l132 144h29z" />
    <glyph glyph-name="Acircumflex" unicode="&#xc2;" 
d="M349 770l-103 123l-99 -123h-20l113 139h15l114 -139h-20zM420 519q0 48 -9 85t-29 62t-53.5 38t-81.5 13q-49 0 -82 -13t-53.5 -38.5t-29 -62t-8.5 -84.5v-149h346v149zM420 0v350h-346v-350h-20v542q0 94 48.5 144.5t144.5 50.5t144.5 -50.5t48.5 -144.5v-542h-20z" />
    <glyph glyph-name="Ecircumflex" unicode="&#xca;" 
d="M350 770l-103 123l-99 -123h-20l113 139h15l114 -139h-20zM54 0v720h391v-20h-371v-330h344v-20h-344v-330h375v-20h-395z" />
    <glyph glyph-name="Aacute" unicode="&#xc1;" 
d="M168 765h-15l132 144h29zM420 519q0 48 -9 85t-29 62t-53.5 38t-81.5 13q-49 0 -82 -13t-53.5 -38.5t-29 -62t-8.5 -84.5v-149h346v149zM420 0v350h-346v-350h-20v542q0 94 48.5 144.5t144.5 50.5t144.5 -50.5t48.5 -144.5v-542h-20z" />
    <glyph glyph-name="Edieresis" unicode="&#xcb;" 
d="M354 809q0 -11 -8 -19t-19 -8t-19 8t-8 19t8 19t19 8t19 -8t8 -19zM199 809q0 -11 -8 -19t-19 -8t-19 8t-8 19t8 19t19 8t19 -8t8 -19zM54 0v720h391v-20h-371v-330h344v-20h-344v-330h375v-20h-395z" />
    <glyph glyph-name="Egrave" unicode="&#xc8;" 
d="M166 909h29l125 -144h-15zM54 0v720h391v-20h-371v-330h344v-20h-344v-330h375v-20h-395z" />
    <glyph glyph-name="Iacute" unicode="&#xcd;" horiz-adv-x="128" 
d="M-6 765h-15l132 144h29zM54 0v720h20v-720h-20z" />
    <glyph glyph-name="Icircumflex" unicode="&#xce;" horiz-adv-x="128" 
d="M165 770l-103 123l-99 -123h-20l113 139h15l114 -139h-20zM54 0v720h20v-720h-20z" />
    <glyph glyph-name="Idieresis" unicode="&#xcf;" horiz-adv-x="128" 
d="M169 809q0 -11 -8 -19t-19 -8t-19 8t-8 19t8 19t19 8t19 -8t8 -19zM14 809q0 -11 -8 -19t-19 -8t-19 8t-8 19t8 19t19 8t19 -8t8 -19zM54 0v720h20v-720h-20z" />
    <glyph glyph-name="Igrave" unicode="&#xcc;" horiz-adv-x="128" 
d="M-19 909h29l125 -144h-15zM54 0v720h20v-720h-20z" />
    <glyph glyph-name="Oacute" unicode="&#xd3;" horiz-adv-x="732" 
d="M321 765h-15l132 144h29zM675 360q0 71 -19.5 135.5t-58 114t-96.5 78.5t-135 29t-135 -29t-96.5 -78.5t-58 -114t-19.5 -135.5t19.5 -135.5t58 -114t96.5 -78.5t135 -29t135 29t96.5 78.5t58 114t19.5 135.5zM695 360q0 -75 -21 -143.5t-62.5 -120t-103 -82.5
t-142.5 -31t-142.5 31t-103 82.5t-62.5 120t-21 143.5t21 143.5t62.5 120t103 82.5t142.5 31t142.5 -31t103 -82.5t62.5 -120t21 -143.5z" />
    <glyph glyph-name="Ocircumflex" unicode="&#xd4;" horiz-adv-x="732" 
d="M462 770l-103 123l-99 -123h-20l113 139h15l114 -139h-20zM675 360q0 71 -19.5 135.5t-58 114t-96.5 78.5t-135 29t-135 -29t-96.5 -78.5t-58 -114t-19.5 -135.5t19.5 -135.5t58 -114t96.5 -78.5t135 -29t135 29t96.5 78.5t58 114t19.5 135.5zM695 360q0 -75 -21 -143.5
t-62.5 -120t-103 -82.5t-142.5 -31t-142.5 31t-103 82.5t-62.5 120t-21 143.5t21 143.5t62.5 120t103 82.5t142.5 31t142.5 -31t103 -82.5t62.5 -120t21 -143.5z" />
    <glyph glyph-name="Ograve" unicode="&#xd2;" horiz-adv-x="732" 
d="M258 909h29l125 -144h-15zM675 360q0 71 -19.5 135.5t-58 114t-96.5 78.5t-135 29t-135 -29t-96.5 -78.5t-58 -114t-19.5 -135.5t19.5 -135.5t58 -114t96.5 -78.5t135 -29t135 29t96.5 78.5t58 114t19.5 135.5zM695 360q0 -75 -21 -143.5t-62.5 -120t-103 -82.5
t-142.5 -31t-142.5 31t-103 82.5t-62.5 120t-21 143.5t21 143.5t62.5 120t103 82.5t142.5 31t142.5 -31t103 -82.5t62.5 -120t21 -143.5z" />
    <glyph glyph-name="Uacute" unicode="&#xda;" 
d="M186 765h-15l132 144h29zM440 178q0 -94 -48.5 -144.5t-144.5 -50.5t-144.5 50.5t-48.5 144.5v542h20v-519q0 -48 9 -85t29 -62t53.5 -38t81.5 -13q49 0 82 13t53 38.5t29 62t9 84.5v519h20v-542v0z" />
    <glyph glyph-name="Ucircumflex" unicode="&#xdb;" 
d="M347 770l-103 123l-99 -123h-20l113 139h15l114 -139h-20zM440 178q0 -94 -48.5 -144.5t-144.5 -50.5t-144.5 50.5t-48.5 144.5v542h20v-519q0 -48 9 -85t29 -62t53.5 -38t81.5 -13q49 0 82 13t53 38.5t29 62t9 84.5v519h20v-542v0z" />
    <glyph glyph-name="Ugrave" unicode="&#xd9;" 
d="M173 909h29l125 -144h-15zM440 178q0 -94 -48.5 -144.5t-144.5 -50.5t-144.5 50.5t-48.5 144.5v542h20v-519q0 -48 9 -85t29 -62t53.5 -38t81.5 -13q49 0 82 13t53 38.5t29 62t9 84.5v519h20v-542v0z" />
    <glyph glyph-name="circumflex" unicode="&#x2c6;" horiz-adv-x="0" 
d="M370 570l-103 123l-99 -123h-21l113 139h15l115 -139h-20z" />
    <glyph glyph-name="tilde" unicode="&#x2dc;" horiz-adv-x="0" 
d="M401 656q0 -29 -17 -52t-52 -23q-19 0 -35 9t-31 20t-30 20t-31 9q-11 0 -19.5 -5.5t-15 -14.5t-10 -19.5t-3.5 -19.5h-21q0 14 5.5 28t15 25.5t22 18.5t25.5 7q17 0 33.5 -9t32.5 -20t31 -20t30 -9q23 0 36 17t13 38h21v0z" />
    <glyph glyph-name="macron" unicode="&#xaf;" horiz-adv-x="0" 
d="M152 618v20h233v-20h-233z" />
    <glyph glyph-name="cedilla" unicode="&#xb8;" horiz-adv-x="0" 
d="M359 -110q0 -22 -8 -36t-21.5 -22.5t-31.5 -11.5t-37 -3q-26 0 -47 6t-36 11l9 19q17 -6 35 -11t38 -5q14 0 28 2.5t25.5 8.5t18.5 16.5t7 25.5q0 10 -6 18t-14 12.5t-18 7t-17 2.5q-32 0 -54 -13l-16 10l57 73h21l-42 -56q7 1 13 3.5t20 2.5q29 0 52.5 -13.5t23.5 -46.5
z" />
  </font>
</defs>
</svg>
